<?xml version="1.0" encoding="utf-8"?>
<!-- Generator: Adobe Illustrator 12.0.1, SVG Export Plug-In . SVG Version: 6.00 Build 51448)  -->
<!DOCTYPE svg PUBLIC "-//W3C//DTD SVG 1.1//EN" "http://www.w3.org/Graphics/SVG/1.1/DTD/svg11.dtd" [
	<!ENTITY ns_svg "http://www.w3.org/2000/svg">
	<!ENTITY ns_xlink "http://www.w3.org/1999/xlink">
]>
<svg  version="1.1" id="Layer_1" xmlns="&ns_svg;" xmlns:xlink="&ns_xlink;" width="437.995" height="407.486"
	 viewBox="0 0 437.995 407.486" overflow="visible" enable-background="new 0 0 437.995 407.486" xml:space="preserve">
<g>
	<path fill-rule="evenodd" clip-rule="evenodd" d="M341.67,11.585c-2.138,0.344-5.935-2.982-9.041-3.741
		C335.153,7.157,339.033,10.326,341.67,11.585z"/>
	<path fill-rule="evenodd" clip-rule="evenodd" d="M359.438,22.808c-4.465-2.602-8.608-5.523-13.093-8.105
		c1.854-0.47,5.717,2.365,7.481,4.053C356.006,19.797,358.379,20.646,359.438,22.808z"/>
	<path fill-rule="evenodd" clip-rule="evenodd" d="M311.12,15.015c1.289-0.096,0.579,2.179-0.624,1.559
		C310.448,15.798,310.986,15.608,311.12,15.015z"/>
	<path fill-rule="evenodd" clip-rule="evenodd" d="M308.626,19.69c1.102,0.913-0.869,3.54-1.87,4.364
		C306.943,22.165,307.974,21.117,308.626,19.69z"/>
	<path fill-rule="evenodd" clip-rule="evenodd" d="M361.933,24.367c1.69,0.595,2.465,2.106,4.052,2.806
		C364.511,27.6,362.47,25.912,361.933,24.367z"/>
	<path fill-rule="evenodd" clip-rule="evenodd" d="M304.573,26.86c0.362-0.051,0.555,0.069,0.624,0.312
		c-2.78,5.428-5.402,11.016-8.729,15.898c-0.238-1.462,2.499-5.875,4.052-7.793C301.331,31.93,303.492,29.936,304.573,26.86z"/>
	<path fill-rule="evenodd" clip-rule="evenodd" d="M336.993,32.16c1.179,6.134,0.095,9.565,0.312,18.081
		C335.904,43.98,337.455,40.048,336.993,32.16z"/>
	<path fill-rule="evenodd" clip-rule="evenodd" d="M334.812,38.083c1.382,4.596,0.228,9.319,0.312,15.275
		C334.151,49.81,334.936,42.798,334.812,38.083z"/>
	<path fill-rule="evenodd" clip-rule="evenodd" d="M338.864,42.447c0.673,0.063,0.143,4.006,0.312,5.611
		c-0.455,1.875-0.013-1.333-0.623-1.247C338.866,45.87,338.463,44.479,338.864,42.447z"/>
	<path fill-rule="evenodd" clip-rule="evenodd" d="M357.256,46.811c0.304,0.009,0.242,0.382,0.312,0.624
		c-3.139,5.279-5.564,11.27-9.041,16.21C350.352,58.195,354.583,52.452,357.256,46.811z"/>
	<path fill-rule="evenodd" clip-rule="evenodd" d="M293.663,47.123c0.303,0.008,0.241,0.381,0.312,0.624
		c-3.574,6.817-7.272,13.509-10.911,20.263c-0.423-0.097-0.258-0.781-0.312-1.247C286.606,60.433,289.823,53.467,293.663,47.123z"/>
	<path fill-rule="evenodd" clip-rule="evenodd" d="M338.553,52.422c1.29-0.044,0.324,2.169,0.623,3.117
		C338.089,55.379,338.719,53.503,338.553,52.422z"/>
	<path fill-rule="evenodd" clip-rule="evenodd" d="M355.386,54.293c0.303,0.008,0.242,0.381,0.312,0.624
		c-3.754,7.052-7.352,14.261-11.222,21.198C346.822,68.797,351.935,61.545,355.386,54.293z"/>
	<path fill-rule="evenodd" clip-rule="evenodd" d="M334.812,56.787c0.707,0.332,0.119,1.959,0.312,2.806
		C334.445,58.375,334.587,57.931,334.812,56.787z"/>
	<path fill-rule="evenodd" clip-rule="evenodd" d="M295.533,64.268c0.711,0.433,0.116,2.17,0.312,3.118
		C294.641,66.977,294.786,65.054,295.533,64.268z"/>
	<path fill-rule="evenodd" clip-rule="evenodd" d="M293.663,68.944c0.52,4.158,0.52,10.494,0,14.651
		C292.607,80.129,292.652,72.418,293.663,68.944z"/>
	<path fill-rule="evenodd" clip-rule="evenodd" d="M295.533,69.256c0.525,4.269,0.511,12.355,0,15.587
		c-1.134-0.235-0.623-3.809-0.623-6.235C294.91,74.532,294.639,70.308,295.533,69.256z"/>
	<path fill-rule="evenodd" clip-rule="evenodd" d="M344.476,70.191c-1.14,5.616-5.031,11.178-8.105,15.898
		c-2.334,6.188-5.802,11.239-8.729,16.834c-0.74-1.478,0.853-3.297,1.87-4.053c3.933-8.121,8.121-15.987,12.781-23.38
		c-0.152-0.984,0.562-1.101,0.312-2.182C343.754,72.795,343.922,71.3,344.476,70.191z"/>
	<path fill-rule="evenodd" clip-rule="evenodd" d="M280.57,71.438c0.458,2.229-1.932,4.3-2.806,6.235
		C276.882,76.221,279.877,73.379,280.57,71.438z"/>
	<path fill-rule="evenodd" clip-rule="evenodd" d="M296.78,76.426c0.938,0.686,0.739,3.379,0.312,4.988
		C296.205,79.772,296.886,78.716,296.78,76.426z"/>
	<path fill-rule="evenodd" clip-rule="evenodd" d="M275.894,80.479c-1.792,6.001-6.747,11.54-9.04,18.081
		c-4.666,6.452-7.916,14.321-12.157,21.198c-0.314-1.982,1.519-4.505,2.806-5.923C263.321,102.404,269.443,91.276,275.894,80.479z"
		/>
	<path fill-rule="evenodd" clip-rule="evenodd" d="M293.039,85.778c0.312,0,0.624,0,0.936,0c0,0.52,0,1.039,0,1.559
		c-0.277-0.191-0.558-0.377-0.624,0C292.675,87.389,293.21,86.231,293.039,85.778z"/>
	<path fill-rule="evenodd" clip-rule="evenodd" d="M296.78,86.089c0.428-0.378,0.522,2.709,0.312,3.118
		C296.381,88.775,296.976,87.037,296.78,86.089z"/>
	<path fill-rule="evenodd" clip-rule="evenodd" d="M293.039,89.831c1.082,0.878,1.371,3.166,0.312,4.364
		C292.633,93.354,293.24,91.188,293.039,89.831z"/>
	<path fill-rule="evenodd" clip-rule="evenodd" d="M335.747,91.077c0.303,0.009,0.241,0.382,0.312,0.624
		c-5.371,9.593-10.499,19.427-15.587,29.303c-0.805-2.782,2.433-4.215,2.494-7.17C327.61,106.632,331.335,98.512,335.747,91.077z"/>
	<path fill-rule="evenodd" clip-rule="evenodd" d="M397.781,108.223c0.648,0.174,0.661,0.486,0.312,0.935
		c-11.328,5.921-23.069,13.091-33.979,18.392c2.091-2.689,6.116-3.444,9.04-5.299c0.298-0.534,1.035-0.628,1.247-1.247
		c0.881,0.258,0.808-0.439,1.559-0.312C382.808,116.109,390.841,112.712,397.781,108.223z"/>
	<path fill-rule="evenodd" clip-rule="evenodd" fill="#A0A0A4" d="M420.227,116.951c-9.883,6.3-20.25,11.888-30.55,17.457
		c-8.92,4.822-17.448,10.324-26.498,15.275c-21.396,11.705-43.396,24.558-65.463,36.161c2.211-5.374,5.284-9.886,7.793-14.963
		c34.801-20.168,69.981-39.956,105.054-59.853C413.686,113.1,417.313,114.667,420.227,116.951z"/>
	<path fill-rule="evenodd" clip-rule="evenodd" fill="#EFF0F0" d="M388.118,119.445c0.921,1.145,0.054,3.159-0.624,3.741
		c-1.857,0.403-2.113-0.795-3.429-0.935C384.524,120.474,387.279,119.866,388.118,119.445z"/>
	<path fill-rule="evenodd" clip-rule="evenodd" fill="#EFF0F0" d="M382.818,122.562c0.793,0.35,1.521,0.766,2.182,1.247
		C384.464,124.426,382.975,123.359,382.818,122.562z"/>
	<path fill-rule="evenodd" clip-rule="evenodd" fill="#EFF0F0" d="M380.636,122.874c1.144,0.52,2.066,1.259,3.118,1.871
		c-0.763,0.796-1.805,1.312-3.118,1.559C380.362,124.596,380.362,124.581,380.636,122.874z"/>
	<path fill-rule="evenodd" clip-rule="evenodd" d="M316.107,128.485c-4.549,10.206-10.822,21.39-16.21,31.796
		c0.147-1.89,1.36-4.654,2.494-6.858c0.897-1.746,2.964-4.552,3.429-4.676C308.711,141.455,312.312,134.872,316.107,128.485z"/>
	<path fill-rule="evenodd" clip-rule="evenodd" fill="#EFF0F0" d="M327.33,130.044c4.89,5.917,8.345,13.269,12.469,19.951
		c-1.104,0.455-1.921,1.196-3.117,1.559c-2.01-1.304-3.171-2.104-5.299-2.806c0.506-3.601-0.724-6.83-4.677-6.858
		c0.147-2.953-0.267-5.344-1.559-6.858C325.431,132.925,326.771,131.875,327.33,130.044z"/>
	<path fill-rule="evenodd" clip-rule="evenodd" d="M248.149,130.667c0.78,1.31-0.981,2.75-1.559,3.741
		C245.866,133.152,247.666,131.75,248.149,130.667z"/>
	<path fill-rule="evenodd" clip-rule="evenodd" d="M271.53,131.603c0.697,0.593,0.562,2.44,0.312,3.429
		C270.579,134.648,271.484,132.578,271.53,131.603z"/>
	<path fill-rule="evenodd" clip-rule="evenodd" fill="#EFF0F0" d="M396.847,134.408c1.234,0.322,0.285,3.426,0.935,3.429
		c-1.156,1.441-3.371,1.824-4.676,3.118c-0.095,2.069,0.45,2.098,0,3.429c0.899,1.076,2.991,0.958,4.364,1.559
		c0.688,3.791-1.392,4.565-4.364,5.923c0,1.351,0,2.702,0,4.052c0.437,1.441,3.022,1.662,3.741,1.871
		c0.415,1.427,0.657,3.075,0.312,3.741c-1.03,1.048-2.655,1.502-4.053,2.182c0,1.663,0,3.325,0,4.988
		c0.951,0.607,2.08,1.037,3.741,0.935c2,6.176-4.767,6.173-8.105,8.729c-3.022-1.55-6.197-2.946-8.417-5.299
		c-0.046-12.554,0.269-20.576,0.624-29.615C386.187,140.375,391.645,137.519,396.847,134.408z M388.43,157.788
		c-0.343-7.097,1.19-10.894-0.312-17.146C388.307,146.655,387.403,154.163,388.43,157.788z M388.118,165.582
		c-0.476,0.034-0.615,0.095-0.624,0.623c-0.043,2.655,0.139,5.187,0.624,10.287c0.519-4.469,0.519-11.117,0-15.586
		C387.593,162.8,387.325,163.739,388.118,165.582z"/>
	<path fill-rule="evenodd" clip-rule="evenodd" d="M245.032,136.278c0.301,2.23-1.521,4.08-2.493,5.923
		c-2.407,4.565-4.628,9.319-7.17,13.716c0.085-2.244,1.349-4.784,2.493-6.858C240.146,144.922,242.954,140.656,245.032,136.278z"/>
	<path fill-rule="evenodd" clip-rule="evenodd" fill="#EFF0F0" d="M323.589,137.214c0.688,0.409,0.369,2.422-0.312,2.494
		C322.262,138.97,323.565,137.942,323.589,137.214z"/>
	<path fill-rule="evenodd" clip-rule="evenodd" d="M269.659,137.525c0.949,0.025,0.73,2.038,0.312,2.494
		C269.269,139.787,269.85,138.271,269.659,137.525z"/>
	<path fill-rule="evenodd" clip-rule="evenodd" d="M271.53,138.46c1.157,4.249,0.05,5.825,0.312,13.405
		C270.556,148.162,271.328,142.099,271.53,138.46z"/>
	<path fill-rule="evenodd" clip-rule="evenodd" fill="#EFF0F0" d="M324.836,138.46c0.251,0.165,0.506,0.325,0.936,0.312
		c-0.538,1.059-0.217,2.285,0,3.429C324.4,141.94,324.628,139.382,324.836,138.46z"/>
	<path fill-rule="evenodd" clip-rule="evenodd" fill="#A0A0A4" d="M322.03,140.331c0.594,0.134,0.783,0.671,1.559,0.624
		c0.614,2.266,0.232,4.789,1.247,7.17c-2.2-0.882-0.466-3.869-1.87-5.3c-1.417,2.185-0.303,4.377,0.935,6.235
		c-2.425,2.458-5.746,4.021-9.352,5.299C316.964,149.604,319.421,144.891,322.03,140.331z"/>
	<path fill-rule="evenodd" clip-rule="evenodd" d="M388.118,140.643c1.502,6.251-0.031,10.049,0.312,17.146
		C387.403,154.163,388.307,146.655,388.118,140.643z"/>
	<path fill-rule="evenodd" clip-rule="evenodd" d="M269.659,141.89c0.362-0.051,0.555,0.069,0.624,0.312
		c-0.357,5.126,0.309,10.396-0.624,15.587c0-4.988,0-9.976,0-14.963C269.659,142.513,269.659,142.201,269.659,141.89z"/>
	<path fill-rule="evenodd" clip-rule="evenodd" fill="#EFF0F0" d="M328.577,143.76c0.582,1.945,0.387,2.251,0,4.364
		c-2.601,0.002-3.231-1.964-3.741-4.053C325.518,142.657,327.313,143.315,328.577,143.76z"/>
	<path fill-rule="evenodd" clip-rule="evenodd" d="M273.089,144.072c0.719,0.943,0.109,3.215,0.312,4.676
		C272.29,148.299,272.716,145.004,273.089,144.072z"/>
	<path fill-rule="evenodd" clip-rule="evenodd" fill="#EFF0F0" d="M329.512,147.812c0.895,0.353,1.157,1.337,1.247,2.494
		C330.078,149.74,329.398,149.173,329.512,147.812z"/>
	<path fill-rule="evenodd" clip-rule="evenodd" d="M303.015,148.436c0.304,0.009,0.242,0.382,0.312,0.624
		c-5.656,10.557-11.568,22.508-17.457,31.796C290.616,170.328,297.521,159.257,303.015,148.436z"/>
	<path fill-rule="evenodd" clip-rule="evenodd" fill="#A0A0A4" d="M327.33,149.995c0.339,1.986,0.052,5.109,0.312,6.546
		c-6.232,4.471-13.361,8.044-20.263,11.846c0.755-3.715,4.216-7.421,5.611-11.534C317.707,154.69,321.524,150.038,327.33,149.995z"
		/>
	<path fill-rule="evenodd" clip-rule="evenodd" fill="#EFF0F0" d="M332.629,151.553c1.679,1.613-0.413,3.352-2.182,3.429
		c-0.786-0.635-1.28-1.906-0.623-3.117C331.107,152.11,331.424,151.387,332.629,151.553z"/>
	<path fill-rule="evenodd" clip-rule="evenodd" d="M273.089,153.424c0.71,0.432,0.116,2.17,0.312,3.117
		c-1.43-0.411,0.131-1.958-0.936-2.494C272.742,153.909,273.022,153.773,273.089,153.424z"/>
	<path fill-rule="evenodd" clip-rule="evenodd" fill="#C41230" d="M273.4,204.547c2.05,12.083-10.396,5.445-15.898,3.43
		c-4.815-1.764-8.908-3.325-12.47-4.676c-8.99-3.412-17.093-5.157-25.25-9.041c-4.059-1.932-8.048-4.586-11.846-6.858
		c-8.231-4.925-14.835-8.372-23.692-13.716c-2.904-1.752-10.753-5.553-11.222-7.482c-0.591-2.429,2.625-6.43,5.611-6.546
		c3.936-0.152,9.328,1.954,14.028,3.429C223.143,172.659,252.946,186.735,273.4,204.547z M180.815,162.152
		c0.049-1.192-1.272-1.013-1.87-1.559C178.904,161.778,179.761,162.064,180.815,162.152z M198.584,169.946
		c-4.51-3.804-10.26-6.366-15.898-9.041C187.436,164.469,193.01,167.207,198.584,169.946z M206.378,176.492
		c-1.392-2.314-4.259-3.305-6.546-4.676c-3.617-2.167-7.003-4.355-10.911-5.923C194.112,170.054,200.598,172.92,206.378,176.492z
		 M208.872,175.557c-2.386-1.556-5.25-3.965-7.481-3.741c4.968,2.929,9.428,6.366,14.339,9.352
		C214.298,178.947,211.408,177.21,208.872,175.557z M218.535,185.532c-1.753-2.922-4.775-4.577-7.793-6.235
		C212.604,182.112,215.868,183.523,218.535,185.532z M223.835,187.403c-1.491-1.939-3.283-3.575-5.611-4.676
		C219.588,184.791,221.369,186.439,223.835,187.403z M230.381,188.649c2.695,0.114,8.441,2.882,10.911,2.182
		C238.152,190.003,232.913,188.014,230.381,188.649z M221.029,193.014c0.089-1.989,1.493-2.664,1.87-4.364c-0.208,0-0.416,0-0.624,0
		C221.715,189.776,219.078,192.309,221.029,193.014z M222.588,192.079c0.677-0.175,1.766-1.531,0.935-2.182
		C223.233,190.645,222.27,190.722,222.588,192.079z M250.332,196.131c-3.932-2.792-9.481-3.534-14.34-4.676
		C240.357,193.429,245.564,194.56,250.332,196.131z M257.813,197.066c-3.169-2.649-8.096-3.542-12.469-4.987
		C248.919,194.323,253.756,195.305,257.813,197.066z M259.996,199.249c-1.329-0.23-2.149-0.969-3.43-1.247
		C256.85,199.105,259.525,200.31,259.996,199.249z M266.854,200.807c-1.773-1.031-3.542-2.068-5.611-2.806
		C262.231,199.614,265.135,200.963,266.854,200.807z M266.854,203.301c0.421-1.173-1.438-1.646-1.87-0.936
		C265.62,202.665,266.217,203.002,266.854,203.301z M272.776,207.666c0.006-0.521,1.015-2.276-0.312-2.183
		C272.04,205.904,271.871,207.66,272.776,207.666z M270.906,211.094c0.188-0.774,1.956-1.759,0.624-2.182
		C271.304,209.438,269.878,210.344,270.906,211.094z"/>
	<path fill-rule="evenodd" clip-rule="evenodd" d="M178.945,160.594c0.598,0.545,1.919,0.367,1.87,1.559
		C179.761,162.064,178.904,161.778,178.945,160.594z"/>
	<path fill-rule="evenodd" clip-rule="evenodd" d="M182.686,160.905c5.639,2.674,11.389,5.237,15.898,9.041
		C193.01,167.207,187.436,164.469,182.686,160.905z"/>
	<path fill-rule="evenodd" clip-rule="evenodd" d="M388.118,160.905c0.519,4.47,0.519,11.117,0,15.586
		c-0.485-5.1-0.667-7.632-0.624-10.287c0.009-0.528,0.148-0.589,0.624-0.623C387.325,163.739,387.593,162.8,388.118,160.905z"/>
	<path fill-rule="evenodd" clip-rule="evenodd" fill="#EFF0F0" d="M358.503,180.233c-0.962,1.739-2.671,2.732-4.053,4.052
		c-2.545-0.02-0.798-3.957-1.559-6.546c-0.548-1.867-1.431-1.572-2.806-2.806c-1.116,0.149-1.801,0.507-2.806,0
		c0.267-0.994-0.271-1.183-0.623-1.559c0.528-1.342,0.801-2.94,0.623-4.988c-0.904-2.386-3.975-0.757-5.299-2.494
		c1.247-1.767,3.491-2.536,5.611-3.429C351.341,168.276,355.12,174.056,358.503,180.233z"/>
	<path fill-rule="evenodd" clip-rule="evenodd" d="M188.921,165.893c3.908,1.567,7.293,3.756,10.911,5.923
		c2.288,1.371,5.155,2.362,6.546,4.676C200.598,172.92,194.112,170.054,188.921,165.893z"/>
	<path fill-rule="evenodd" clip-rule="evenodd" fill="#EFF0F0" d="M340.423,166.205c0.63,1.562,2.295,1.896,3.74,1.871
		c0.346,0.589,0.398,1.473,0.624,2.182c-1.998-1.57-6.157,0.615-6.547-2.806C339.016,166.865,340,166.303,340.423,166.205z"/>
	<path fill-rule="evenodd" clip-rule="evenodd" fill="#EFF0F0" d="M336.993,168.075c0.547,0.285,1.083,0.58,0.936,1.559
		C337.285,169.446,336.748,169.152,336.993,168.075z"/>
	<path fill-rule="evenodd" clip-rule="evenodd" d="M294.598,169.01c-0.507,3.859-4.209,7.22-5.299,11.534
		c-0.577-2.772,2.857-6.617,4.364-9.352C293.525,170.016,294.277,169.729,294.598,169.01z"/>
	<path fill-rule="evenodd" clip-rule="evenodd" d="M215.729,181.168c-4.911-2.986-9.371-6.423-14.339-9.352
		c2.232-0.225,5.095,2.185,7.481,3.741C211.408,177.21,214.298,178.947,215.729,181.168z"/>
	<path fill-rule="evenodd" clip-rule="evenodd" fill="#EFF0F0" d="M398.717,174.933c-3.116,2.184-6.315,4.283-10.287,5.611
		C391.067,178.054,395.396,175.716,398.717,174.933z"/>
	<path fill-rule="evenodd" clip-rule="evenodd" fill="#EFF0F0" d="M344.476,174.933c0.617,0.422,0.99,1.087,1.246,1.871
		c1.623,0.168,2.312-0.599,3.741-0.624c-0.425,1.861-2.098,2.474-2.806,4.053C345.638,178.759,344.142,177.76,344.476,174.933z"/>
	<path fill-rule="evenodd" clip-rule="evenodd" fill="#A0A0A4" d="M378.143,176.18c3.492,1.288,6.075,3.484,9.352,4.988
		c0,8.105,0,16.21,0,24.315c1.055-5.854,0.879-12.117,0.936-23.068c3.633-1.771,6.645-4.162,10.599-5.611
		c1.398,24.073-0.045,38.751,0.623,62.035c10.978,7.727,23.76,13.648,35.227,20.886c-3.04,2.779-7.251,4.388-10.911,6.547
		c-3.423-1.565-6.195-3.78-9.663-5.3c2.262,2.934,6.36,4.031,9.352,6.235c-0.324,4.733,0.166,8.116-0.312,12.157
		c-7.078-3.219-13.994-7.718-21.198-11.846c-7.041-4.035-14.441-7.919-20.574-12.781c1.629-1.28,3.706-2.113,6.234-2.494
		c-1.384-3.001-5.531,0.092-6.857,0.936c-2.127,1.353-4.019,3.015-5.923,4.053c-12.573,6.848-24.697,15.443-37.097,22.756
		c-49.692,29.309-99.226,61.133-148.696,90.715c-3.726-1.574-6.337-4.262-10.287-5.611c1.671-4.468,1.153-9.977,0.935-14.34
		c65.794-39.674,130.764-80.177,197.327-119.082c-0.292-22.658,0.733-34.921,0.936-54.553
		C378.143,176.804,378.143,176.492,378.143,176.18z M387.183,233.851c1.118-7.313,0.807-19.721,0.312-24.627
		C387.157,215.507,387.185,223.367,387.183,233.851z M377.519,231.668c1.1,1.291,2.52,2.261,4.364,2.806
		C381.032,233.085,378.871,231.537,377.519,231.668z M385.936,236.968c-0.155-1.3-1.409-1.5-2.494-1.87
		C383.706,236.288,384.851,236.598,385.936,236.968z M349.774,260.348c-11.525,7.034-23.317,13.558-34.29,21.197
		c23.396-13.596,46.496-27.488,69.204-41.771c0.328-0.018,0.245-0.4-0.312-0.312C372.872,246.399,361.261,253.337,349.774,260.348z
		 M387.494,250.061c-0.223-3.879,0.603-6.877-0.312-9.976C387.688,243.024,385.705,247.227,387.494,250.061z M396.847,240.397
		c0.013,0.43-0.147,0.685-0.312,0.936c0.904-0.239,1.793-0.493,2.183-1.247C397.763,239.859,397.8,240.624,396.847,240.397z
		 M391.547,244.45c0.967-1.008,3.291-0.657,3.429-2.494C393.714,242.467,391.287,243.453,391.547,244.45z M411.186,259.724
		c-2.441-2.979-6.282-4.344-9.663-6.234c-3.356-1.877-6.491-4.349-9.976-5.923c-0.242,0.07-0.615,0.009-0.624,0.312
		C397.647,251.857,404.168,256.04,411.186,259.724z M311.12,284.663c-0.035-0.38-0.094-0.737-0.624-0.623
		c-22.703,13.562-45.856,28.223-68.27,41.461c-1.432,0.846-3.604,1.346-4.364,3.117C262.811,314.495,286.565,299.179,311.12,284.663
		z M182.062,362.285c17.156-9.342,33.118-19.877,49.877-29.615c0.045-0.368,0.556-0.706,0-0.935
		C215.288,341.892,198.26,351.672,182.062,362.285z"/>
	<path fill-rule="evenodd" clip-rule="evenodd" fill="#EFF0F0" d="M343.54,178.362c0.547,0.285,1.083,0.58,0.936,1.559
		C343.831,179.733,343.295,179.439,343.54,178.362z"/>
	<path fill-rule="evenodd" clip-rule="evenodd" d="M210.742,179.297c3.018,1.658,6.04,3.312,7.793,6.235
		C215.868,183.523,212.604,182.112,210.742,179.297z"/>
	<path fill-rule="evenodd" clip-rule="evenodd" d="M27.443,185.532c-3.41-0.747-5.25-3.062-8.105-4.364
		C21.654,180.589,25.486,183.695,27.443,185.532z"/>
	<path fill-rule="evenodd" clip-rule="evenodd" d="M14.351,182.415c1.714,0.26,2.625,1.323,3.741,2.182
		C17.646,185.463,14.521,183.876,14.351,182.415z"/>
	<path fill-rule="evenodd" clip-rule="evenodd" fill="#EFF0F0" d="M206.689,188.961c-0.313,1.245-0.867,2.25-1.247,3.429
		c-3.975-1.116-7.35-2.833-11.534-3.741c-0.062-2.764,1.328-4.076,2.183-5.923C199.91,184.519,203.534,186.506,206.689,188.961z"/>
	<path fill-rule="evenodd" clip-rule="evenodd" d="M218.224,182.727c2.328,1.101,4.121,2.737,5.611,4.676
		C221.369,186.439,219.588,184.791,218.224,182.727z"/>
	<path fill-rule="evenodd" clip-rule="evenodd" d="M21.832,186.779c1.207,0.455,2.568,0.757,2.806,2.182
		C23.864,188.682,22.04,188.459,21.832,186.779z"/>
	<path fill-rule="evenodd" clip-rule="evenodd" d="M241.292,190.832c-2.47,0.7-8.216-2.068-10.911-2.182
		C232.913,188.014,238.152,190.003,241.292,190.832z"/>
	<path fill-rule="evenodd" clip-rule="evenodd" d="M222.276,188.649c0.208,0,0.416,0,0.624,0c-0.377,1.701-1.781,2.375-1.87,4.364
		C219.078,192.309,221.715,189.776,222.276,188.649z"/>
	<path fill-rule="evenodd" clip-rule="evenodd" fill="#EFF0F0" d="M207.937,189.584c0.92,1.279-0.644,5.066-2.182,5.923
		C205.759,193.995,207.041,191.229,207.937,189.584z"/>
	<path fill-rule="evenodd" clip-rule="evenodd" d="M223.523,189.896c0.831,0.651-0.258,2.007-0.935,2.182
		C222.27,190.722,223.233,190.645,223.523,189.896z"/>
	<path fill-rule="evenodd" clip-rule="evenodd" d="M27.443,190.52c1.634,0.133,2.958,0.575,3.117,2.182
		C29.177,192.319,28.182,191.548,27.443,190.52z"/>
	<path fill-rule="evenodd" clip-rule="evenodd" fill="#EFF0F0" d="M242.539,204.547c-0.62,1.667-2.803,1.771-4.053,2.806
		c-10.442-3.585-20.829-7.228-30.862-11.222c0.343-2.151,1.256-3.732,2.182-5.3c4.786,2.233,10.573,5.368,16.21,7.481
		C231.696,200.443,237.19,202.231,242.539,204.547z"/>
	<path fill-rule="evenodd" clip-rule="evenodd" d="M235.992,191.455c4.858,1.142,10.408,1.884,14.34,4.676
		C245.564,194.56,240.357,193.429,235.992,191.455z"/>
	<path fill-rule="evenodd" clip-rule="evenodd" d="M5.934,191.767c1.747,0.228,3.036,0.913,3.741,2.182
		C7.91,193.739,6.802,192.873,5.934,191.767z"/>
	<path fill-rule="evenodd" clip-rule="evenodd" d="M245.345,192.079c4.373,1.445,9.3,2.338,12.469,4.987
		C253.756,195.305,248.919,194.323,245.345,192.079z"/>
	<path fill-rule="evenodd" clip-rule="evenodd" d="M281.817,193.637c1.146,1.473-1.15,2.164-0.936,3.741
		C279.735,195.906,282.032,195.213,281.817,193.637z"/>
	<path fill-rule="evenodd" clip-rule="evenodd" d="M17.78,198.313c-1.364,1.465-3.173-1.455-4.676-1.87
		C14.214,195.231,16.32,197.855,17.78,198.313z"/>
	<path fill-rule="evenodd" clip-rule="evenodd" d="M30.873,196.443c0.531,2.735-4.22,5.53-4.988,9.04
		C24.893,202.249,29.174,199.049,30.873,196.443z"/>
	<path fill-rule="evenodd" clip-rule="evenodd" d="M3.751,196.754c3.8,1.812,7.644,3.578,10.288,6.547
		C10.403,201.326,6.32,199.797,3.751,196.754z"/>
	<path fill-rule="evenodd" clip-rule="evenodd" d="M256.566,198.001c1.28,0.278,2.101,1.017,3.43,1.247
		C259.525,200.31,256.85,199.105,256.566,198.001z"/>
	<path fill-rule="evenodd" clip-rule="evenodd" d="M261.242,198.001c2.069,0.737,3.838,1.774,5.611,2.806
		C265.135,200.963,262.231,199.614,261.242,198.001z"/>
	<path fill-rule="evenodd" clip-rule="evenodd" d="M183.933,206.73c-4.955-2.423-9.542-5.213-14.34-7.793
		c-0.095-0.378,0.901-1.075,0.935-0.312c2.446,1.083,4.853,2.441,7.17,3.741C179.906,203.604,182.521,204.646,183.933,206.73z"/>
	<path fill-rule="evenodd" clip-rule="evenodd" d="M154.63,198.625c-3.21,2.401-7.217,4.006-11.222,5.611
		C146.394,201.611,150.411,200.017,154.63,198.625z"/>
	<path fill-rule="evenodd" clip-rule="evenodd" d="M19.026,199.56c1.479,0.288,3.048,0.485,3.118,2.183
		C20.768,201.352,19.591,200.762,19.026,199.56z"/>
	<path fill-rule="evenodd" clip-rule="evenodd" fill="#EFF0F0" d="M212.612,199.872c2.708,0.825,5.352,1.715,7.793,2.806
		c0.629,2.539-0.533,5.31,0.312,7.794c0.868-2.748,0.261-3.784,0.624-7.17c1.816-0.153,2.501,0.823,4.053,0.935
		c-0.467,1.417,0.188,2.948-0.624,3.43c0.259,1.403,2.047,1.277,2.806,2.182c0.203,1.624-0.37,2.816,0,3.741
		c-2.078,1.144-3.772,2.67-6.546,3.117c0-1.455,0-2.91,0-4.364c-1.488,0.52-0.519,2.871-0.936,5.611
		c-1.743,0.958-4.28,1.122-4.676,3.429c-1.342-0.425-2.372-1.161-3.429-1.87C212.077,212,212.372,208.479,212.612,199.872z"/>
	<path fill-rule="evenodd" clip-rule="evenodd" d="M52.07,200.184c2.952,1.516,6.304,2.632,8.105,5.299
		C57.067,204.124,54.139,202.583,52.07,200.184z"/>
	<path fill-rule="evenodd" clip-rule="evenodd" d="M278.076,201.119c-0.232,1.119-1.342,1.36-2.806,1.247
		C275.558,201.301,277.006,201.4,278.076,201.119z"/>
	<path fill-rule="evenodd" clip-rule="evenodd" fill="#EFF0F0" d="M38.042,202.989c-1.909,2.663-3.588,5.557-4.987,8.729
		c-1.3,0.157-1.375-0.911-2.806-0.623c-0.903-3.396,2.761-6.784,4.364-9.664C35.887,201.819,37.112,202.256,38.042,202.989z"/>
	<path fill-rule="evenodd" clip-rule="evenodd" d="M46.147,201.43c0.812,0.197,2.271,0.585,2.805,1.871
		C47.459,203.236,46.281,202.856,46.147,201.43z"/>
	<path fill-rule="evenodd" clip-rule="evenodd" fill="#A0A0A4" d="M210.43,202.054c1.675,3.793,0.602,5.832,0.312,10.91
		c-1.806,0.48-3.449,1.124-4.364,2.494c2.135,0.161,2.513-1.436,4.364-1.559c-0.075,2.517,0.357,2.896,0,4.676
		c-5.189-2.396-9.628-5.543-14.651-8.104C200.715,207.51,205.835,205.044,210.43,202.054z"/>
	<path fill-rule="evenodd" clip-rule="evenodd" d="M264.983,202.366c0.432-0.711,2.291-0.237,1.87,0.936
		C266.217,203.002,265.62,202.665,264.983,202.366z"/>
	<path fill-rule="evenodd" clip-rule="evenodd" d="M16.221,204.236c2.172,0.842,4.118,1.908,5.611,3.43
		C20.756,208.172,17.001,206.09,16.221,204.236z"/>
	<path fill-rule="evenodd" clip-rule="evenodd" fill="#A0A0A4" d="M226.329,204.86c3.154,1.313,7.013,1.923,9.664,3.74
		c-1.899,1.842-4.232,3.25-7.17,4.053c-0.278-0.651-0.327-1.768-0.312-3.429c-0.678-0.569-1.612-0.882-2.182-1.559
		C225.731,206.901,227.199,206.021,226.329,204.86z"/>
	<path fill-rule="evenodd" clip-rule="evenodd" d="M52.382,205.171c1.091,0.571,2.576,0.749,2.806,2.182
		C53.957,206.921,52.376,206.839,52.382,205.171z"/>
	<path fill-rule="evenodd" clip-rule="evenodd" fill="#A0A0A4" d="M255.632,209.224c-9.92,6.498-21.229,11.606-31.485,17.769
		c-2.621-2.056-6.163-3.189-8.417-5.611c9.611-5.353,19.922-10.005,28.68-16.21C248.092,206.581,252.141,207.624,255.632,209.224z"
		/>
	<path fill-rule="evenodd" clip-rule="evenodd" d="M272.465,205.483c1.326-0.094,0.317,1.662,0.312,2.183
		C271.871,207.66,272.04,205.904,272.465,205.483z"/>
	<path fill-rule="evenodd" clip-rule="evenodd" d="M62.045,206.107c1.327,0.959,3.539,1.033,4.053,2.806
		C64.166,208.558,62.652,207.787,62.045,206.107z"/>
	<path fill-rule="evenodd" clip-rule="evenodd" d="M135.303,208.6c-2.127,2.133-5.298,3.224-8.105,4.676
		C128.994,210.812,132.209,209.767,135.303,208.6z"/>
	<path fill-rule="evenodd" clip-rule="evenodd" d="M188.297,208.913c0.959,0.183,2.206,0.079,2.182,1.246
		C189.269,210.226,188.524,209.829,188.297,208.913z"/>
	<path fill-rule="evenodd" clip-rule="evenodd" d="M271.53,208.913c1.332,0.423-0.436,1.407-0.624,2.182
		C269.878,210.344,271.304,209.438,271.53,208.913z"/>
	<path fill-rule="evenodd" clip-rule="evenodd" d="M387.494,209.224c0.495,4.906,0.807,17.313-0.312,24.627
		C387.185,223.367,387.157,215.507,387.494,209.224z"/>
	<path fill-rule="evenodd" clip-rule="evenodd" d="M59.24,209.536c1.055,0.088,1.911,0.375,1.87,1.559
		C60.513,210.548,59.191,210.728,59.24,209.536z"/>
	<path fill-rule="evenodd" clip-rule="evenodd" d="M40.536,212.341c-1.059,0.02-1.713-0.366-2.182-0.936
		C38.568,210.313,40.523,211.333,40.536,212.341z"/>
	<path fill-rule="evenodd" clip-rule="evenodd" fill="#C41230" d="M350.086,211.406c-2.626,2.673-6.644,3.955-10.287,5.611
		C342.881,214.799,346.396,213.014,350.086,211.406z"/>
	<path fill-rule="evenodd" clip-rule="evenodd" d="M193.908,211.717c8.634,4.355,16.925,9.054,24.315,14.652
		c-8.072-4.397-15.852-9.088-23.692-13.717C193.867,212.798,193.938,212.208,193.908,211.717z"/>
	<path fill-rule="evenodd" clip-rule="evenodd" fill="#A0A0A4" d="M375.96,226.057c0,1.663,0,3.325,0,4.988
		c-2.215,1.11-4.146,2.504-6.234,3.74c-4.582-3.003-9.353-5.818-14.34-8.416c2.929,3.203,9.169,5.793,13.404,8.729
		c-3.179,2.535-7.28,4.149-10.599,6.546c-6.358-2.475-11.418-6.247-17.146-9.352c0.456-4.536-0.523-9.261,0.624-13.093
		c3.652,1.75,6.717,4.089,10.287,5.923c-2.06-3.448-6.84-4.175-9.664-6.858c2.376-1.42,6.717-5.571,9.664-5.611
		c1.421-0.02,4.324,2.019,6.234,3.117C363.718,218.951,371.1,223.404,375.96,226.057z"/>
	<path fill-rule="evenodd" clip-rule="evenodd" fill="#EFF0F0" d="M252.514,212.964c-0.773,0.474-1.269,1.225-2.493,1.247
		C250.51,213.454,251.347,213.043,252.514,212.964z"/>
	<path fill-rule="evenodd" clip-rule="evenodd" d="M63.604,213.276c0.53-0.114,0.588,0.244,0.623,0.624
		c-3.21,2.855-5.979,6.627-7.793,10.91c-0.251,0.593,0.555,1.96-0.936,1.871C56.406,220.417,59.869,216.71,63.604,213.276z"/>
	<path fill-rule="evenodd" clip-rule="evenodd" d="M44.277,214.211c1.343,0.216,2.291,0.827,2.806,1.87
		C45.763,215.843,44.318,215.729,44.277,214.211z"/>
	<path fill-rule="evenodd" clip-rule="evenodd" d="M61.11,234.163c-5.774-7.479,3.794-24.432,13.093-17.769
		C75.391,225.528,70.742,234.899,61.11,234.163z M72.333,216.082c-8.696-1.022-13.804,8.605-11.223,16.834
		C67.815,236.8,77.127,221.21,72.333,216.082z"/>
	<path fill-rule="evenodd" clip-rule="evenodd" d="M35.548,215.458c3.266,1.307,5.892,3.252,8.729,4.987
		C41.11,220.286,37.575,217.797,35.548,215.458z"/>
	<path fill-rule="evenodd" clip-rule="evenodd" fill="#EFF0F0" d="M61.11,232.916c-2.581-8.229,2.526-17.856,11.223-16.834
		C77.127,221.21,67.815,236.8,61.11,232.916z M65.163,227.928c3.394-0.14,4.689-2.377,4.364-6.235
		C66.161,219.429,63.04,225.655,65.163,227.928z"/>
	<path fill-rule="evenodd" clip-rule="evenodd" d="M120.963,216.394c-4.007,3.267-9.765,6.444-14.028,8.416
		C111.251,221.645,115.897,218.81,120.963,216.394z"/>
	<path fill-rule="evenodd" clip-rule="evenodd" fill="#C41230" d="M339.176,217.953c1.839,3.012,0.157,8.041,0.623,13.404
		C337.715,228.849,339.299,221.794,339.176,217.953z"/>
	<path fill-rule="evenodd" clip-rule="evenodd" d="M50.823,218.264c1.798,0.28,3.227,0.93,3.741,2.494
		C52.849,220.395,51.517,219.649,50.823,218.264z"/>
	<path fill-rule="evenodd" clip-rule="evenodd" d="M144.031,218.264c1.198-0.077,0.595,2.678,0.312,3.117
		C143.508,220.375,144.111,219.787,144.031,218.264z"/>
	<path fill-rule="evenodd" clip-rule="evenodd" d="M33.366,219.2c-0.051-0.363,0.069-0.555,0.312-0.624
		c7.47,3.441,14.233,7.588,20.575,12.157C47.079,228.342,40.845,222.324,33.366,219.2z"/>
	<path fill-rule="evenodd" clip-rule="evenodd" fill="#A0A0A4" d="M77.944,220.758c0.208,0,0.416,0,0.624,0
		c13.939,6.787,32.257,14.294,47.072,21.821c6.168,3.134,11.217,5.952,12.157,14.339c0.642,5.728-2.851,8.201-1.87,13.093
		c0.13,0.651,0.919,1.243,0.935,2.183c0.057,3.384-3.311,7.751-4.676,10.599c-3.208,6.69-6.545,14.13-9.664,21.198
		c-4.722,10.703-9.83,19.864-14.651,30.238c-3.178-1.328-6.45-3.744-11.222-2.494c1.417-4.264-1.922-8.497-4.676-10.599
		c5.846-13.193,13.677-26.723,19.951-40.525c3.483-7.662,8.472-20.362,1.559-29.615c0.537-0.768,2.371,0.713,2.806-0.623
		c-13.315-7.155-28.079-12.861-42.084-19.327C75.5,227.666,77.767,225.256,77.944,220.758z M125.639,265.959
		c0.291,3.109-1.161,5.848-0.624,9.04c3.134-8.842,0.287-20.248-6.858-23.38C121.476,255.048,125.057,259.734,125.639,265.959z
		 M134.368,258.478c-1.05-3.388-6.787-0.288-4.988,3.74C132.313,264.327,135.136,260.958,134.368,258.478z M111.611,302.12
		c-0.419,0.755-2.15,2.132-0.936,2.806c4.369-8.724,9.024-17.161,13.093-26.186c-0.07-0.241-0.009-0.614-0.312-0.623
		C119.137,284.997,115.543,295.048,111.611,302.12z M97.895,329.865c3.816-6.575,7.121-13.661,10.599-20.575
		c-0.066-0.35-0.346-0.484-0.624-0.623C104.813,315.793,100.134,322.959,97.895,329.865z"/>
	<path fill-rule="evenodd" clip-rule="evenodd" d="M69.527,221.693c0.325,3.858-0.971,6.096-4.364,6.235
		C63.04,225.655,66.161,219.429,69.527,221.693z M66.41,226.993c1.185-0.789,1.428-2.521,2.182-3.741
		c-0.461-0.162-0.786-0.461-1.247-0.623C66.569,223.504,64.36,226.175,66.41,226.993z"/>
	<path fill-rule="evenodd" clip-rule="evenodd" d="M46.147,222.004c3.128,0.925,5.839,2.267,7.481,4.677
		C50.734,225.523,48.107,224.098,46.147,222.004z"/>
	<path fill-rule="evenodd" clip-rule="evenodd" fill="#EFF0F0" d="M67.345,222.628c0.461,0.162,0.786,0.461,1.247,0.623
		c-0.754,1.221-0.997,2.952-2.182,3.741C64.36,226.175,66.569,223.504,67.345,222.628z"/>
	<path fill-rule="evenodd" clip-rule="evenodd" d="M144.031,223.251c1.189-0.146,0.591,2.436,0.312,2.806
		C143.635,225.726,144.224,224.098,144.031,223.251z"/>
	<path fill-rule="evenodd" clip-rule="evenodd" d="M144.031,227.616c1.613,3.187,0.46,6.472,0.312,10.6
		C143.578,236.103,143.759,231.068,144.031,227.616z"/>
	<path fill-rule="evenodd" clip-rule="evenodd" d="M147.148,227.616c0.278,0.192,0.558,0.377,0.624,0
		c0.574,0.595,0.552,3.238-0.312,3.43C146.747,230.511,147.346,228.666,147.148,227.616z"/>
	<path fill-rule="evenodd" clip-rule="evenodd" d="M183.31,227.928c1.137,0.473,0.378,2.02,0.312,2.493
		C182.484,230.208,183.688,229.18,183.31,227.928z"/>
	<path fill-rule="evenodd" clip-rule="evenodd" d="M145.902,228.24c0.726,3.118,0.105,7.584,0.312,11.222
		C144.525,237.639,145.04,230.564,145.902,228.24z"/>
	<path fill-rule="evenodd" clip-rule="evenodd" d="M229.758,234.163c-2.642-1.31-6.111-3.447-7.482-4.988
		C224.742,229.647,228.072,231.877,229.758,234.163z"/>
	<path fill-rule="evenodd" clip-rule="evenodd" d="M381.883,234.474c-1.845-0.545-3.265-1.515-4.364-2.806
		C378.871,231.537,381.032,233.085,381.883,234.474z"/>
	<path fill-rule="evenodd" clip-rule="evenodd" d="M181.439,232.604c1.126-0.296,0.435,1.228,0.624,1.87
		C180.936,234.769,181.628,233.247,181.439,232.604z"/>
	<path fill-rule="evenodd" clip-rule="evenodd" d="M183.31,233.227c0.718,3.336,0.111,10.695,0.312,15.587
		c-1.843-1.91-0.388-5.431-0.312-7.793C183.393,238.47,183.118,235.909,183.31,233.227z"/>
	<path fill-rule="evenodd" clip-rule="evenodd" d="M147.148,234.474c0.312,0,0.624,0,0.936,0c-0.205,1.978,0.411,4.775-0.312,6.234
		C146.371,239.824,147.525,236.384,147.148,234.474z"/>
	<path fill-rule="evenodd" clip-rule="evenodd" d="M383.441,235.098c1.085,0.37,2.339,0.57,2.494,1.87
		C384.851,236.598,383.706,236.288,383.441,235.098z"/>
	<path fill-rule="evenodd" clip-rule="evenodd" d="M181.439,236.657c0.493,0.65,0.646,1.639,0.624,2.805
		C180.63,239.053,181.634,238.063,181.439,236.657z"/>
	<path fill-rule="evenodd" clip-rule="evenodd" d="M234.434,238.215c1.065-0.131,1.776,0.094,1.559,1.246
		C234.976,239.543,234.492,239.092,234.434,238.215z"/>
	<path fill-rule="evenodd" clip-rule="evenodd" d="M184.557,238.838c0.312,0,0.623,0,0.935,0c-0.199,1.152,0.404,3.105-0.312,3.741
		C183.85,242.456,184.883,239.967,184.557,238.838z"/>
	<path fill-rule="evenodd" clip-rule="evenodd" d="M384.377,239.461c0.557-0.088,0.64,0.295,0.312,0.312
		c-22.708,14.283-45.808,28.176-69.204,41.771c10.973-7.64,22.765-14.163,34.29-21.197
		C361.261,253.337,372.872,246.399,384.377,239.461z"/>
	<path fill-rule="evenodd" clip-rule="evenodd" fill="#C41230" d="M89.167,239.774c7.745,2.957,14.819,6.586,22.445,9.663
		c0.654,3.502,3.097,5.216,3.429,9.041c-6.062-2.337-13.057-7.319-19.327-11.223C92.755,245.414,87.925,244.577,89.167,239.774z"/>
	<path fill-rule="evenodd" clip-rule="evenodd" d="M230.381,239.774c-0.284,0.962-1.458,1.035-2.494,1.247
		C228.239,240.126,229.224,239.864,230.381,239.774z"/>
	<path fill-rule="evenodd" clip-rule="evenodd" d="M235.681,240.085c0.973,0.47,0.514,2.12,0,2.806
		C234.478,242.962,234.982,240.11,235.681,240.085z"/>
	<path fill-rule="evenodd" clip-rule="evenodd" d="M387.183,240.085c0.914,3.099,0.089,6.097,0.312,9.976
		C385.705,247.227,387.688,243.024,387.183,240.085z"/>
	<path fill-rule="evenodd" clip-rule="evenodd" d="M398.717,240.085c-0.39,0.754-1.278,1.008-2.183,1.247
		c0.165-0.251,0.325-0.506,0.312-0.936C397.8,240.624,397.763,239.859,398.717,240.085z"/>
	<path fill-rule="evenodd" clip-rule="evenodd" d="M225.394,241.333c0.357,0.109,0.79,0.549,0.312,0.623
		c-2.882,1.706-6.946,3.838-9.976,4.364C218.423,244.129,222.514,243.336,225.394,241.333z"/>
	<path fill-rule="evenodd" clip-rule="evenodd" d="M181.439,241.956c0.907,2.798,0.027,7.299,0.312,11.846
		C180.477,250.62,181.517,246.781,181.439,241.956z"/>
	<path fill-rule="evenodd" clip-rule="evenodd" d="M145.278,243.514c0.312,0,0.623,0,0.935,0c-0.17,0.453,0.364,1.611-0.312,1.559
		C144.854,245.393,145.417,244.104,145.278,243.514z"/>
	<path fill-rule="evenodd" clip-rule="evenodd" d="M218.224,247.255c-0.013,1.189-1.908,1.604-2.494,1.247
		C216.381,247.907,217.218,247.497,218.224,247.255z"/>
	<path fill-rule="evenodd" clip-rule="evenodd" d="M184.557,247.567c0.312,0,0.623,0,0.935,0c-0.115,0.838,0.286,3.795-0.312,3.117
		C184.013,251.624,184.773,248.552,184.557,247.567z"/>
	<path fill-rule="evenodd" clip-rule="evenodd" d="M390.923,247.878c0.009-0.303,0.382-0.241,0.624-0.312
		c3.484,1.574,6.619,4.046,9.976,5.923c3.381,1.891,7.222,3.256,9.663,6.234C404.168,256.04,397.647,251.857,390.923,247.878z"/>
	<path fill-rule="evenodd" clip-rule="evenodd" d="M210.43,248.502c0.365,0.05,0.263,0.568,0.312,0.935
		c-12.065,6.016-23.539,12.622-34.603,19.64c-0.178-1.869,2.255-2.457,3.429-3.117C189.33,260.469,200.388,253.951,210.43,248.502z"
		/>
	<path fill-rule="evenodd" clip-rule="evenodd" d="M211.365,250.373c0.366,0.051,0.263,0.568,0.312,0.936
		c-4.065,1.442-7.045,3.969-11.222,5.299C203.333,253.77,208.088,252.81,211.365,250.373z"/>
	<path fill-rule="evenodd" clip-rule="evenodd" d="M118.157,251.62c7.146,3.132,9.993,14.538,6.858,23.38
		c-0.538-3.192,0.914-5.931,0.624-9.04C125.057,259.734,121.476,255.048,118.157,251.62z"/>
	<path fill-rule="evenodd" clip-rule="evenodd" fill="#EFF0F0" d="M226.64,251.62c1.334,2.006,0.409,6.939,0.312,8.729
		c-1.749,0.434-3.743,0.621-5.923,0.623c0-2.078,0-4.156,0-6.234C222.855,253.654,224.725,252.613,226.64,251.62z"/>
	<path fill-rule="evenodd" clip-rule="evenodd" fill="#EFF0F0" d="M219.782,255.36c0.721,1.149,0.108,3.633,0.312,5.3
		c-1.588-0.697-3.14-1.433-4.364-2.494C216.924,257.074,218.496,256.36,219.782,255.36z"/>
	<path fill-rule="evenodd" clip-rule="evenodd" d="M129.38,262.218c-1.799-4.028,3.938-7.128,4.988-3.74
		C135.136,260.958,132.313,264.327,129.38,262.218z M130.315,259.413c-0.151,1.19,0.088,1.99,0.624,2.494
		c1.118,0.079,1.142-0.937,2.182-0.936c0-0.831,0-1.662,0-2.493C131.976,258.58,130.983,258.834,130.315,259.413z"/>
	<path fill-rule="evenodd" clip-rule="evenodd" fill="#EFF0F0" d="M139.355,256.918c0.781,0.258,0.986,1.093,1.559,1.56
		c-0.249,0.687-0.626,1.244-1.559,1.246C138.887,259.219,138.887,257.424,139.355,256.918z"/>
	<path fill-rule="evenodd" clip-rule="evenodd" fill="#EFF0F0" d="M133.121,258.478c0,0.831,0,1.662,0,2.493
		c-1.04-0.001-1.064,1.015-2.182,0.936c-0.535-0.504-0.774-1.304-0.624-2.494C130.983,258.834,131.976,258.58,133.121,258.478z"/>
	<path fill-rule="evenodd" clip-rule="evenodd" d="M193.908,260.348c-3.148,2.671-7.357,4.28-10.91,6.546
		c0.549-1.671,3.114-2.329,4.987-3.429C189.905,262.338,191.736,260.747,193.908,260.348z"/>
	<path fill-rule="evenodd" clip-rule="evenodd" fill="#C41230" d="M435.812,260.971c0.556,0.229,0.045,0.567,0,0.936
		c-3.813,1.382-6.188,4.202-10.287,5.3C428.087,264.26,432.735,263.401,435.812,260.971z"/>
	<path fill-rule="evenodd" clip-rule="evenodd" fill="#C41230" d="M437.06,274.064c-3.279,1.917-6.682,3.709-9.976,5.611
		c-0.726-3.223-0.104-7.792-0.312-11.534c3.441-1.482,6.926-4.45,10.287-4.987C437.303,267.198,436.588,270.66,437.06,274.064z"/>
	<path fill-rule="evenodd" clip-rule="evenodd" d="M142.473,265.647c2.796,0.633,4.355,2.503,6.546,3.741
		C146.596,269.626,144.13,267.213,142.473,265.647z"/>
	<path fill-rule="evenodd" clip-rule="evenodd" fill="#C41230" d="M424.902,268.141c1.445,4.805,0.071,7.958,0.312,12.47
		C423.756,276.458,425.197,272.203,424.902,268.141z"/>
	<path fill-rule="evenodd" clip-rule="evenodd" d="M153.695,274.688c-3.389-0.872-5.265-3.256-8.417-4.364
		C147.703,269.796,151.585,272.857,153.695,274.688z"/>
	<path fill-rule="evenodd" clip-rule="evenodd" d="M151.825,271.258c1.572,0.194,2.179,1.354,3.429,1.871
		C154.632,274.19,151.999,272.64,151.825,271.258z"/>
	<path fill-rule="evenodd" clip-rule="evenodd" d="M171.464,271.258c-0.847,1.751-3.087,2.108-4.364,3.43
		C166.72,272.952,169.823,272.012,171.464,271.258z"/>
	<path fill-rule="evenodd" clip-rule="evenodd" d="M123.457,278.117c0.303,0.009,0.242,0.382,0.312,0.623
		c-4.069,9.024-8.724,17.462-13.093,26.186c-1.214-0.674,0.516-2.051,0.936-2.806C115.543,295.048,119.137,284.997,123.457,278.117z
		"/>
	<path fill-rule="evenodd" clip-rule="evenodd" d="M158.994,279.987c0.164,1.396,1.146,3.282,0.624,4.364
		C158.66,283.188,158.226,281.176,158.994,279.987z"/>
	<path fill-rule="evenodd" clip-rule="evenodd" fill="#EFF0F0" d="M173.958,281.234c2.109,4.244-0.197,8.558,0.935,16.834
		c-2.447,1.293-4.874,2.607-7.17,4.052c-1.178-1.421-0.018-2.059-0.623-4.052c1.182-0.793,2.192-1.757,3.429-2.494
		c0.054-2.5-0.422-4.801-3.117-5.923c-0.506-1.109,0.57-3.104-0.312-4.364C169.263,283.813,172.03,282.944,173.958,281.234z"/>
	<path fill-rule="evenodd" clip-rule="evenodd" d="M237.862,328.618c0.761-1.771,2.933-2.271,4.364-3.117
		c22.413-13.238,45.566-27.898,68.27-41.461c0.53-0.114,0.589,0.243,0.624,0.623C286.565,299.179,262.811,314.495,237.862,328.618z"
		/>
	<path fill-rule="evenodd" clip-rule="evenodd" fill="#EFF0F0" d="M162.112,286.534c0.624,0,1.247,0,1.87,0c0,1.039,0,2.078,0,3.117
		c0.553,1.213,2.719,0.814,3.429,1.87c-0.836,1.094-0.349,1.792-0.624,3.117c-1.519-0.063-1.417,1.492-2.806,1.559
		c0,1.352,0,2.702,0,4.053c-5.411-0.829-3.493-6.523,0-8.729C163.494,289.058,163.793,287.739,162.112,286.534z"/>
	<path fill-rule="evenodd" clip-rule="evenodd" fill="#EFF0F0" d="M70.462,292.145c0.177,1.424-0.716,1.777-1.871,1.87
		C67.978,293.173,69.134,292.018,70.462,292.145z"/>
	<path fill-rule="evenodd" clip-rule="evenodd" fill="#EFF0F0" d="M165.541,298.691c0.553-0.832,0.227,1.826,0.312,2.494
		c-0.747,0.123,0.173-1.42-0.935-0.936C165.05,299.655,165.808,299.686,165.541,298.691z"/>
	<path fill-rule="evenodd" clip-rule="evenodd" fill="#A0A0A4" d="M157.124,299.626c3,2.092,6.422,3.761,9.664,5.611
		c0.247,8.65-0.72,17.884-0.312,24.003c1.975-1.859,0.56-4.434,0.624-6.234c0.192-5.414,0.811-9.554,0.623-17.769
		c3.502-1.278,6.336-3.225,9.352-4.988c1.934,14.397,0.126,27.635,0.624,47.384c-3.142,3.271-8.518,4.342-12.469,7.481
		c0.209,3.946,0.284,6.557-0.312,12.157c-2.887-1.686-5.948-3.196-8.417-5.299c-0.624-13.827,0-27.676,0-44.89
		C156.5,311.398,156.008,304.099,157.124,299.626z M156.812,304.614c0.208,2.079,2.366,4.099,4.364,2.494
		c-0.008,1.67,0.824,2.501,2.494,2.494c2.764-1.153,2.101-6.458-1.871-4.677c0.333-1.164-0.774-0.888-0.623-1.87
		C158.761,302.108,158.143,303.681,156.812,304.614z M166.788,352.932c-0.28-6.586,0.52-15.177-0.312-20.263
		C166.781,339.078,164.779,347.348,166.788,352.932z"/>
	<path fill-rule="evenodd" clip-rule="evenodd" fill="#EFF0F0" d="M158.371,305.238c0.312,0,0.623,0,0.935,0
		c0,0.415,0,0.831,0,1.246C158.851,306.212,158.099,306.237,158.371,305.238z"/>
	<path fill-rule="evenodd" clip-rule="evenodd" d="M107.87,308.667c0.278,0.139,0.558,0.273,0.624,0.623
		c-3.478,6.914-6.783,14-10.599,20.575C100.134,322.959,104.813,315.793,107.87,308.667z"/>
	<path fill-rule="evenodd" clip-rule="evenodd" fill="#C41230" d="M86.049,330.488c-0.469,0.882-1.374,1.328-1.559,2.494
		c-0.724-0.137-0.834-1.377-1.559-0.624c-2.525,2.879-4.631,6.176-5.923,10.287c1.637,0.209,0.882-1.45,1.247-2.182
		c1.37-2.751,3.521-5.17,5.299-7.481c1.322,1.053-0.482,2.054-0.935,3.117c-1.122,2.629-2.051,6.102-3.741,8.104
		c0.223,2.896,2.344,3.891,4.676,4.677c0,2.493,0,4.987,0,7.481c-5.049,0.295-6.834-5.162-6.858-10.911
		c-1.312-0.48-0.05,1.613-0.936,1.559c-7.646-3.372-15.573-9.155-23.38-13.404c0.314-9.929,8.197-23.029,18.392-19.327
		c1.641,0.596,3.554,2.611,6.235,4.053c3.248,1.745,6.518,2.325,7.481,5.923C83.689,326.903,84.638,329.166,86.049,330.488z
		 M77.009,319.889c-1.791-2.166-5.575-3.624-7.481-4.677C71.33,317.462,74.021,318.824,77.009,319.889z M68.592,321.136
		c-0.056-1.815-2.008-1.732-3.117-2.494C65.866,320.121,67.656,320.202,68.592,321.136z M81.685,322.695
		c-0.591-1.176-1.806-1.728-3.117-2.183C78.839,322.007,80.238,322.375,81.685,322.695z M76.074,325.188
		c-0.267-0.98-1.201-1.292-2.182-1.559C74.087,324.68,74.95,325.065,76.074,325.188z M79.191,327.371
		c0.595,0.133,0.564,0.891,1.559,0.623C80.657,327.211,79.368,326.269,79.191,327.371z M62.045,330.799
		c-0.852-1.434-2.5-2.071-4.052-2.806C58.695,329.578,60.538,330.021,62.045,330.799z M68.904,340.463
		c-0.975-2.328-4.356-3.141-6.858-4.676c-2.602-1.598-5.186-3.514-7.481-4.988c-0.312,0-0.624,0-0.935,0
		C58.068,334.673,63.817,337.237,68.904,340.463z M68.28,333.917c-0.966-0.088-1.888-1.832-2.806-0.935
		C66.376,333.234,67.781,335.202,68.28,333.917z M73.892,337.969c0.037-0.99-1.516-1.993-2.182-1.247
		C72.517,337.058,72.868,337.849,73.892,337.969z M76.385,345.139c0.13-1.436-3.299-3.514-4.988-3.117
		C73.104,343.017,74.848,343.974,76.385,345.139z"/>
	<path fill-rule="evenodd" clip-rule="evenodd" d="M69.527,315.212c1.906,1.053,5.691,2.511,7.481,4.677
		C74.021,318.824,71.33,317.462,69.527,315.212z"/>
	<path fill-rule="evenodd" clip-rule="evenodd" d="M65.475,318.642c1.109,0.762,3.062,0.679,3.117,2.494
		C67.656,320.202,65.866,320.121,65.475,318.642z"/>
	<path fill-rule="evenodd" clip-rule="evenodd" d="M78.567,320.512c1.312,0.455,2.526,1.007,3.117,2.183
		C80.238,322.375,78.839,322.007,78.567,320.512z"/>
	<path fill-rule="evenodd" clip-rule="evenodd" fill="#7E8082" d="M90.725,322.071c0.958,0.081,1.402,0.677,2.182,0.936
		c1.095,4.506-6.64,7.58-7.793,3.117C88.428,328.443,91.822,324.237,90.725,322.071z"/>
	<path fill-rule="evenodd" clip-rule="evenodd" d="M73.892,323.629c0.981,0.267,1.916,0.578,2.182,1.559
		C74.95,325.065,74.087,324.68,73.892,323.629z"/>
	<path fill-rule="evenodd" clip-rule="evenodd" d="M80.75,327.994c-0.995,0.268-0.964-0.49-1.559-0.623
		C79.368,326.269,80.657,327.211,80.75,327.994z"/>
	<path fill-rule="evenodd" clip-rule="evenodd" fill="#7E8082" d="M92.907,326.747c1.327,0.751,1.329,2.827,2.806,3.43
		c-0.667,2.867-3.448,4.206-6.546,3.74c-0.5-1.475-1.617-2.331-2.182-3.74C88.776,328.851,91.589,328.546,92.907,326.747z"/>
	<path fill-rule="evenodd" clip-rule="evenodd" d="M57.993,327.994c1.552,0.734,3.2,1.372,4.052,2.806
		C60.538,330.021,58.695,329.578,57.993,327.994z"/>
	<path fill-rule="evenodd" clip-rule="evenodd" d="M53.629,330.799c0.312,0,0.624,0,0.935,0c2.296,1.475,4.879,3.391,7.481,4.988
		c2.502,1.535,5.883,2.348,6.858,4.676C63.817,337.237,58.068,334.673,53.629,330.799z"/>
	<path fill-rule="evenodd" clip-rule="evenodd" d="M231.939,331.735c0.556,0.229,0.045,0.566,0,0.935
		c-16.759,9.738-32.721,20.273-49.877,29.615C198.26,351.672,215.288,341.892,231.939,331.735z"/>
	<path fill-rule="evenodd" clip-rule="evenodd" fill="#A0A0A4" d="M86.361,332.046c1.873,0.726,1.53,3.666,4.676,3.117
		c-3.001,3.649-5.575,7.726-7.17,12.781c-1.471-0.711-2.971-1.393-4.052-2.494C81.662,340.648,84.359,336.695,86.361,332.046z"/>
	<path fill-rule="evenodd" clip-rule="evenodd" d="M65.475,332.982c0.917-0.897,1.839,0.847,2.806,0.935
		C67.781,335.202,66.376,333.234,65.475,332.982z"/>
	<path fill-rule="evenodd" clip-rule="evenodd" d="M166.476,332.669c0.832,5.086,0.031,13.677,0.312,20.263
		C164.779,347.348,166.781,339.078,166.476,332.669z"/>
	<path fill-rule="evenodd" clip-rule="evenodd" fill="#C41230" d="M52.694,334.852c7.979,4.282,15.399,9.123,23.068,13.716
		c-0.152,0.984,0.562,1.102,0.312,2.183c-7.906-4.356-14.868-9.655-23.38-13.404C52.694,336.514,52.694,335.683,52.694,334.852z"/>
	<path fill-rule="evenodd" clip-rule="evenodd" d="M71.709,336.722c0.667-0.746,2.219,0.257,2.182,1.247
		C72.868,337.849,72.517,337.058,71.709,336.722z"/>
	<path fill-rule="evenodd" clip-rule="evenodd" fill="#A0A0A4" d="M128.445,336.722c-1.608,2.341-5.599,2.299-6.858,4.988
		c2.904-0.216,6.155-2.78,8.729-4.364c7.717,4.232,14.886,9.013,22.445,13.404c0,3.74,0,7.481,0,11.223
		c-2.803-0.107-3.432-2.388-5.923-2.806c2.531,3.04,6.56,4.514,9.976,6.546c3.504,2.085,6.985,4.095,10.287,6.234
		c3.621-2.302,7.496-4.35,11.222-6.546c10.757,6.804,22.173,12.948,33.043,19.639c-2.792,2.508-6.722,3.878-9.975,5.923
		c-1.902-0.383-2.916-1.656-4.676-2.182c0.981,1.721,3.251,2.152,4.364,3.741c-0.068,4.447,0.176,9.436-0.312,11.846
		c-20.497-11.476-41.272-23.72-62.347-35.85c-2.029-1.168-8.439-4.179-8.729-5.3c-0.161-0.622,1.302-2.262,1.559-3.117
		c0.477-1.587,1.03-4.777,0.936-6.546c-0.421-7.841-6.804-7.939-12.158-12.158C122.156,339.369,125.755,337.153,128.445,336.722z
		 M146.213,359.167c-3.738-3.121-8.881-6.497-13.404-7.794C137.324,353.924,141.34,356.974,146.213,359.167z M193.597,387.223
		c-7.136-5.646-16.095-9.467-23.691-14.651c-0.367,0.049-0.885-0.054-0.936,0.312C177.23,377.612,184.939,382.892,193.597,387.223z"
		/>
	<path fill-rule="evenodd" clip-rule="evenodd" d="M96.648,337.346c1.704,0.374,2.982,1.174,3.741,2.493
		C98.81,339.34,97.348,338.724,96.648,337.346z"/>
	<path fill-rule="evenodd" clip-rule="evenodd" d="M112.234,340.463c1.811,0.787,3.186,2.01,4.988,2.806
		C115.441,343.693,113.054,342.038,112.234,340.463z"/>
	<path fill-rule="evenodd" clip-rule="evenodd" d="M71.397,342.022c1.689-0.396,5.118,1.682,4.988,3.117
		C74.848,343.974,73.104,343.017,71.397,342.022z"/>
	<path fill-rule="evenodd" clip-rule="evenodd" d="M103.818,342.022c0.744-0.622,2.515,0.381,2.494,1.559
		C105.115,343.426,104.532,342.659,103.818,342.022z"/>
	<path fill-rule="evenodd" clip-rule="evenodd" d="M110.676,345.762c0.793,0.038,1.209,0.454,1.247,1.247
		C111.199,346.902,110.462,346.808,110.676,345.762z"/>
	<path fill-rule="evenodd" clip-rule="evenodd" d="M90.725,347.945c1.71-0.251,3.568,2.039,5.299,2.806
		C95.066,351.441,91.994,349.006,90.725,347.945z"/>
	<path fill-rule="evenodd" clip-rule="evenodd" d="M116.911,349.503c0.357,0.11,0.79,0.549,0.312,0.623
		c-3.41,3.656-6.326,7.807-7.793,13.405c-0.637-2.79,1.428-6.775,3.118-9.353C114.154,351.728,115.516,351.05,116.911,349.503z"/>
	<path fill-rule="evenodd" clip-rule="evenodd" d="M113.793,369.455c-0.184-0.647-0.6-1.063-1.247-1.247
		c-0.894-4.14,0.547-5.457,0.935-9.353c1.919-3.157,10.024-13.427,14.028-7.169C131.139,357.357,122.688,372.358,113.793,369.455z
		 M114.729,368.208c9.232,1.361,14.707-10.447,10.911-16.521C117.45,350.869,111.673,360.798,114.729,368.208z"/>
	<path fill-rule="evenodd" clip-rule="evenodd" d="M87.919,351.062c2.784,1.581,5.594,3.135,8.105,4.987
		C93.423,355.532,89.691,353.449,87.919,351.062z"/>
	<path fill-rule="evenodd" clip-rule="evenodd" d="M132.809,351.374c4.523,1.297,9.667,4.673,13.404,7.794
		C141.34,356.974,137.324,353.924,132.809,351.374z"/>
	<path fill-rule="evenodd" clip-rule="evenodd" fill="#A0A0A4" d="M153.695,351.062c0.503-0.088,0.537,0.295,0.935,0.312
		c-0.152,3.855,0.125,9.597-0.623,9.041c-0.053,0.884,1.054,0.607,0.623,1.87c3.729,2.298,7.139,4.915,11.223,6.858
		c1.369-1.541,0.27-5.55,0.624-8.105c1.068,1.755-0.094,5.901,0.312,9.664c-4.769-2.09-8.37-5.347-13.093-7.482
		C153.695,359.167,153.695,355.115,153.695,351.062z"/>
	<path fill-rule="evenodd" clip-rule="evenodd" fill="#A0A0A4" d="M178.945,351.062c0,4.261,0,8.521,0,12.781
		c-3.993,1.306-6.644,3.955-10.599,5.3c-0.637-4.892-0.034-7.475,0.312-12.47C172.094,354.81,175.272,352.688,178.945,351.062z
		 M170.528,363.843c2.248,2.532,7.736-0.859,6.546-5.611C173.158,353.753,167.864,360.841,170.528,363.843z"/>
	<path fill-rule="evenodd" clip-rule="evenodd" fill="#EFF0F0" d="M125.639,351.686c3.796,6.074-1.679,17.883-10.911,16.521
		C111.673,360.798,117.45,350.869,125.639,351.686z M122.833,356.673c-3.746-1.511-6.721,3.938-4.364,6.546
		C120.864,363.142,123.861,360.173,122.833,356.673z"/>
	<path fill-rule="evenodd" clip-rule="evenodd" d="M99.454,352.932c0.475,0.669,2.155,0.132,1.87,1.559
		C100.496,354.175,99.55,353.979,99.454,352.932z"/>
	<path fill-rule="evenodd" clip-rule="evenodd" d="M118.469,363.219c-2.357-2.607,0.618-8.057,4.364-6.546
		C123.861,360.173,120.864,363.142,118.469,363.219z M118.469,361.349c2.265,1.044,3.749-1.182,3.429-3.74
		C119.385,357.486,118.92,359.41,118.469,361.349z"/>
	<path fill-rule="evenodd" clip-rule="evenodd" d="M177.075,358.232c1.19,4.752-4.299,8.144-6.546,5.611
		C167.864,360.841,173.158,353.753,177.075,358.232z M172.71,363.532c1.461-0.951,1.245-3.723,3.429-3.117
		C176.063,352.882,166.388,362.195,172.71,363.532z"/>
	<path fill-rule="evenodd" clip-rule="evenodd" fill="#A0A0A4" d="M176.14,360.415c-2.184-0.605-1.968,2.166-3.429,3.117
		C166.388,362.195,176.063,352.882,176.14,360.415z"/>
	<path fill-rule="evenodd" clip-rule="evenodd" fill="#7E8082" d="M121.898,357.609c0.32,2.559-1.164,4.784-3.429,3.74
		C118.92,359.41,119.385,357.486,121.898,357.609z"/>
	<path fill-rule="evenodd" clip-rule="evenodd" d="M99.454,358.855c1.979-0.416,4.309,1.507,5.611,2.806
		C103.208,361.803,101.349,359.67,99.454,358.855z"/>
	<path fill-rule="evenodd" clip-rule="evenodd" d="M168.97,372.883c0.05-0.365,0.568-0.263,0.936-0.312
		c7.596,5.185,16.556,9.006,23.691,14.651C184.939,382.892,177.23,377.612,168.97,372.883z"/>
	<path fill-rule="evenodd" clip-rule="evenodd" fill="#C41230" d="M212.612,385.976c0.742,1.028-2.906,2.28-4.364,3.117
		c-1.84,1.056-3.745,2.898-5.923,2.806C205.525,389.695,209.257,388.024,212.612,385.976z"/>
	<path fill-rule="evenodd" clip-rule="evenodd" fill="#C41230" d="M213.859,388.159c0.583,3.418,0.079,7.896,0,12.157
		c-3.099,1.681-5.995,3.565-9.352,4.987c-0.726-3.534-0.105-8.416-0.312-12.469C207.337,391.387,210.638,388.492,213.859,388.159z"
		/>
	<path fill-rule="evenodd" clip-rule="evenodd" fill="#C41230" d="M202.014,393.146c2.604,2.237,0.696,8.952,0.623,12.47
		C201.055,400.934,202.164,399.258,202.014,393.146z"/>
	<path fill-rule="evenodd" clip-rule="evenodd" d="M323.9,108.846c-2.26,7.092-7.67,13.734-10.287,21.509
		c-2.854,3.173-3.804,8.25-6.857,11.223C312.237,130.434,318.052,119.623,323.9,108.846z"/>
	<path fill-rule="evenodd" clip-rule="evenodd" d="M330.759,132.226c14.203-7.336,30.272-16.78,45.825-25.25
		c2.297-1.251,5.102-2.554,7.793-4.052c2.232-1.243,5.559-4.119,7.481-4.053c3.201,0.11,7.644,5.335,10.599,6.234
		c0.719,2.987,0.01,5.525,0.312,8.729c3.663-0.046,4.717-3.655,7.793-3.741c1.686-0.047,4.147,2.117,5.923,3.118
		c2.105,1.186,4.01,2.331,5.611,3.429c0,1.351,0,2.702,0,4.053c-8.266,3.684-15.135,8.765-23.38,12.469c0,1.974,0,3.949,0,5.923
		c-1.347,1.472-4.823,1.359-4.364,3.741c0.504,1.678,3.251,1.113,4.364,2.182c0,1.871,0,3.741,0,5.611
		c-2.142,0.872-5.013,1.014-4.364,4.676c0.807,1.063,2.887,0.854,4.053,1.559c0.357,1.209,0.631,4.137,0,5.299
		c-1.045,2.176-5.297,1.146-4.364,5.299c0.672,1.094,3.331,0.202,4.364,0.935c0.495,0.816-0.232,1.979,0,4.053
		c1.127,1.263,1.824,2.956,2.805,4.364c-0.794,15.637,0.179,41.796-0.623,61.412c12.038,7.704,24.89,14.597,37.408,21.821
		c0,4.884,0,9.768,0,14.651c-1.53,1.854-3.84,2.382-6.234,3.74c-1.754,0.995-4.246,3.685-6.235,3.741
		c-2.528,0.071-9.382-5.259-11.534-6.547c-11.18-6.688-24.001-13.615-33.979-19.639c-63.282,38.137-126.035,76.793-188.91,115.341
		c4.706,3.977,11.909,7.149,18.08,10.91c1.54,0.938,4.921,2.622,5.611,3.741c2.207,3.579-1.123,9.564,0.312,14.963
		c-3.732,2.295-7.768,4.287-11.534,6.547c-24.504-14.359-49.33-28.396-73.881-42.708c-4.722,4.871-9.16,12.538-18.08,10.6
		c-1.386-0.302-3.687-1.846-5.611-2.806c-5.72-2.854-14.015-7.689-18.704-10.599c-1.092-0.678-2.46-3.307-3.429-4.364
		c-12.51-2.869-19.54-11.218-30.238-15.898c-6.955-9.982,2.138-31.836,17.145-29.303c3.146,2.153,6.53,4.069,9.976,5.923
		c-3.56-5.936-6.643-11.705-10.599-18.393c-1.225-2.07-3.702-3.916-3.429-6.234c0.389-3.312,5.636-4.025,7.481-0.936
		c1.241,2.078,2.618,4.638,4.053,7.17c3.588,6.334,8.558,15.112,12.157,20.886c5.68-10.522,11.306-22.758,17.146-34.602
		c3.538-7.177,8.195-13.394,7.793-24.627c-5.425-3.646-12.573-7.761-18.704-11.534c-4.36-2.685-10.051-3.721-9.352-11.223
		c-4.486-2.372-9.481-4.234-14.028-6.546c-4.569,5.013-8.91,8.772-17.146,5.61c-4.464-1.714-11.623-6.678-16.521-9.663
		c-3.578-2.181-6.474-2.914-7.482-6.858c-1.026,0.013-1.552,0.526-2.806,0.312c-9.731-4.297-17.639-10.417-27.121-14.963
		c-7.249-9.832,4.712-32.59,17.769-28.991c3.157,0.87,7.236,4.407,10.911,6.546c6.461,3.762,13.083,6.213,15.898,13.093
		c7.714-0.984,10.977,3.22,17.146,6.857c5.726,3.377,11.104,5.114,14.028,9.976c0.009,1.966,0.08,3.869,0.936,4.988
		c6.238,3.009,12.563,5.932,18.704,9.04c12.821-8.206,29.095-18.695,44.266-26.186c5.316-2.625,10.86-5.994,15.898-7.482
		c7.418-2.19,11.715,1.438,16.522,4.052c6.674,3.63,14.303,7.32,20.574,11.223c4.977-3.752,11.508-5.948,16.21-9.976
		c-1.845-2.246-7.594-2.359-6.546-5.611c-4.21-2.44-10.525-2.775-13.716-6.235c0.271-2.743,1.948-4.079,2.182-6.858
		c-2.132-1.877-5.855-4.077-9.664-6.235c-6.489-3.676-16.321-7.181-9.04-14.963c2.221-0.683,3.947-2.054,6.858-1.559
		c13.286,2.26,30.335,10.519,42.396,14.651c6.727-15.683,15.947-30.565,23.692-44.89c7.501-13.874,14.359-27.65,22.444-41.148
		c11.042-20.959,22.432-41.662,33.667-62.658c3.686-6.886,7.263-13.784,11.534-20.263c5.854-7.033,14.661-3.657,23.068,0
		c8.259,3.593,15.544,7.317,22.445,12.469c6.399,4.778,12.05,8.678,16.833,14.34c1.755,7.46-3.062,12.055-6.234,18.08
		c-10.14,19.258-19.576,37.33-30.238,56.735c-2.714,4.94-6.21,10.776-9.352,16.833C329.132,126.9,327.219,128.677,330.759,132.226z
		 M280.57,209.224c4.521-1.903,5.795-6.969,8.417-11.846c5.616-10.45,11.522-21.054,16.833-30.862
		c7.788-14.383,15.738-27.987,21.821-42.084c2.096-1.861,3.055-4.64,4.676-7.481c13.587-23.812,26.068-47.596,38.967-71.699
		c2.159-4.035,5.189-7.866,4.987-13.093c-7.754-9.955-22.916-19.892-36.473-25.874c-4.859-2.145-10.928-5.256-15.586-5.299
		c-7.079-0.066-8.846,5.819-12.47,9.664c-2.097,5.355-4.825,10.281-7.481,15.275c-5.354,10.063-11.129,19.655-16.521,29.614
		c-2.676,4.942-5.575,9.96-7.794,15.275c-17.783,30.223-33.584,62.43-51.124,92.896c-0.855,3.612-3.282,5.654-3.429,9.976
		c13.235,5.531,26.395,13.82,38.031,21.821c3.866,2.658,11.551,6.664,11.846,12.158C276.734,208.488,278.532,208.976,280.57,209.224
		z M391.235,100.118c-15.009,8.204-30.566,17.114-45.201,25.25c-4.928,2.739-10.216,4.907-14.34,8.729
		c2.059,2.305,2.876,5.853,5.299,7.793c4.101-1.919,8.148-4.291,12.158-6.546c4.073-2.291,8.078-4.845,12.157-6.235
		c-7.558,5.12-16.279,9.075-24.003,14.028c1.306,1.915,2.238,4.204,3.74,5.923c12.209-6.811,26.146-14.584,38.967-21.821
		c-0.257-2.634-0.128-2.903,0-5.923c3.029-1.271,5.733-5.547,9.352-3.429c0.199,1.152-0.403,3.105,0.312,3.741
		c3.987-2.143,7.792-4.469,11.846-6.546c0-3.117,0-6.234,0-9.352C397.858,104.093,395.242,101.41,391.235,100.118z M410.562,111.028
		c-35.072,19.897-70.253,39.684-105.054,59.853c-2.509,5.077-5.582,9.589-7.793,14.963c22.067-11.603,44.067-24.456,65.463-36.161
		c9.05-4.951,17.578-10.453,26.498-15.275c10.3-5.569,20.667-11.157,30.55-17.457C417.313,114.667,413.686,113.1,410.562,111.028z
		 M405.263,127.238c-36.486,20.401-73.187,40.826-109.418,61.1c1.409,0.814,2.486-0.716,3.43-1.247
		c40.513-22.818,81.947-44.737,121.575-67.958C415.089,120.544,410.306,124.418,405.263,127.238z M380.948,121.939
		c1.801,0.383,3.164-2.19,4.987-2.806C383.942,119.738,381.911,120.304,380.948,121.939z M384.065,122.25
		c1.315,0.14,1.571,1.338,3.429,0.935c0.678-0.582,1.545-2.596,0.624-3.741C387.279,119.866,384.524,120.474,384.065,122.25z
		 M385,123.809c-0.661-0.481-1.389-0.897-2.182-1.247C382.975,123.359,384.464,124.426,385,123.809z M380.636,126.303
		c1.313-0.246,2.355-0.763,3.118-1.559c-1.052-0.611-1.975-1.351-3.118-1.871C380.362,124.581,380.362,124.596,380.636,126.303z
		 M325.147,135.032c1.292,1.514,1.706,3.905,1.559,6.858c3.953,0.028,5.183,3.257,4.677,6.858c2.128,0.702,3.289,1.502,5.299,2.806
		c1.196-0.363,2.014-1.104,3.117-1.559c-4.124-6.682-7.579-14.034-12.469-19.951C326.771,131.875,325.431,132.925,325.147,135.032z
		 M380.948,143.448c-0.355,9.039-0.67,17.061-0.624,29.615c2.22,2.353,5.395,3.75,8.417,5.299c3.339-2.555,10.105-2.552,8.105-8.729
		c-1.661,0.102-2.79-0.328-3.741-0.935c0-1.663,0-3.325,0-4.988c1.397-0.68,3.022-1.134,4.053-2.182
		c0.346-0.666,0.104-2.314-0.312-3.741c-0.719-0.209-3.305-0.429-3.741-1.871c0-1.351,0-2.702,0-4.052
		c2.973-1.358,5.053-2.132,4.364-5.923c-1.373-0.601-3.465-0.483-4.364-1.559c0.45-1.331-0.095-1.359,0-3.429
		c1.305-1.293,3.52-1.676,4.676-3.118c-0.649-0.003,0.3-3.106-0.935-3.429C391.645,137.519,386.187,140.375,380.948,143.448z
		 M323.277,139.708c0.681-0.072,0.999-2.085,0.312-2.494C323.565,137.942,322.262,138.97,323.277,139.708z M325.771,142.201
		c-0.217-1.144-0.538-2.37,0-3.429c-0.43,0.013-0.685-0.147-0.936-0.312C324.628,139.382,324.4,141.94,325.771,142.201z
		 M314.549,154.359c3.605-1.278,6.927-2.841,9.352-5.299c-1.237-1.858-2.352-4.05-0.935-6.235c1.404,1.431-0.33,4.417,1.87,5.3
		c-1.015-2.381-0.633-4.904-1.247-7.17c-0.775,0.048-0.965-0.49-1.559-0.624C319.421,144.891,316.964,149.604,314.549,154.359z
		 M324.836,144.072c0.51,2.088,1.141,4.055,3.741,4.053c0.387-2.113,0.582-2.419,0-4.364
		C327.313,143.315,325.518,142.657,324.836,144.072z M349.151,161.84c3.181,6.691,7.45,12.292,10.91,18.704
		c-2.142,2.015-3.889,4.423-6.546,5.923c-2.774-0.709-2-3.041-3.43-4.988c-0.489-1.375,1.729-2.832,0.312-3.117
		c-1.898-0.067-2.115,3.724-4.053,4.053c-4.69,0.796-5.328-7.543-4.053-11.534c-1.457-0.656-2.523,0.024-4.364,0.312
		c-1.202-0.356-1.299-1.818-2.494-2.182c-13.916,7.281-27.108,15.288-41.148,22.445c-4.408,6.11-7.982,24.144-19.951,17.458
		c-0.907,7.418-9.805,3.008-14.339,1.87c-10.968,5.97-22.464,11.411-32.732,18.08c3.958,4.087,11.792,5.132,11.534,12.158
		c-0.2,5.475-6.366,6.851-10.287,9.663c0,3.845,0,7.689,0,11.534c-6.451,1.814-10.626-0.849-14.34-3.429
		c-12.782,7.064-25.447,14.247-38.031,21.51c0,5.61,0,11.222,0,16.833c1.207,0.768,2.649,1.3,3.429,2.494
		c-0.697,14.807-0.962,31.621-0.312,50.188c58.991-35.251,116.701-71.797,176.129-106.612c-1.456-2.729-5.253-4.411-8.417-6.234
		c-3.34-1.925-6.975-3.693-9.663-5.923c1.701-4.014-0.536-11.966,1.559-15.587c3.558-0.64,7.67-5.431,11.222-5.3
		c1.64,0.061,4.516,2.249,6.547,3.43c2.288,1.33,4.655,2.62,6.546,3.74c4.884,2.893,9.169,5.696,13.093,6.858
		c0.337-17.138-0.801-36.854,0.936-50.189c0.283-0.86,1.784-0.502,1.87-1.559c-0.296-11.234,0.637-19.825-0.312-27.744
		C368.976,150.492,358.237,155.339,349.151,161.84z M330.759,150.307c-0.09-1.157-0.353-2.142-1.247-2.494
		C329.398,149.173,330.078,149.74,330.759,150.307z M312.99,156.853c-1.396,4.112-4.856,7.819-5.611,11.534
		c6.901-3.801,14.03-7.375,20.263-11.846c-0.26-1.438,0.027-4.561-0.312-6.546C321.524,150.038,317.707,154.69,312.99,156.853z
		 M329.824,151.865c-0.657,1.211-0.163,2.482,0.623,3.117c1.769-0.078,3.86-1.816,2.182-3.429
		C331.424,151.387,331.107,152.11,329.824,151.865z M192.662,163.087c-4.7-1.476-10.092-3.582-14.028-3.429
		c-2.986,0.116-6.203,4.117-5.611,6.546c0.469,1.929,8.318,5.729,11.222,7.482c8.857,5.344,15.46,8.791,23.692,13.716
		c3.797,2.272,7.787,4.926,11.846,6.858c8.157,3.883,16.26,5.628,25.25,9.041c3.562,1.351,7.654,2.912,12.47,4.676
		c5.503,2.016,17.948,8.653,15.898-3.43C252.946,186.735,223.143,172.659,192.662,163.087z M347.593,162.464
		c-2.12,0.894-4.364,1.663-5.611,3.429c1.324,1.737,4.395,0.107,5.299,2.494c0.178,2.048-0.095,3.646-0.623,4.988
		c0.352,0.375,0.89,0.565,0.623,1.559c1.005,0.507,1.689,0.149,2.806,0c1.375,1.233,2.258,0.938,2.806,2.806
		c0.761,2.589-0.986,6.527,1.559,6.546c1.382-1.32,3.091-2.313,4.053-4.052C355.12,174.056,351.341,168.276,347.593,162.464z
		 M338.24,167.452c0.39,3.421,4.549,1.236,6.547,2.806c-0.226-0.709-0.278-1.593-0.624-2.182c-1.445,0.025-3.11-0.309-3.74-1.871
		C340,166.303,339.016,166.865,338.24,167.452z M337.929,169.634c0.147-0.979-0.389-1.274-0.936-1.559
		C336.748,169.152,337.285,169.446,337.929,169.634z M387.494,179.297c-2.971-0.894-5.905-5.081-8.417-4.364
		C381.958,176.107,384.686,179.091,387.494,179.297z M388.43,180.544c3.972-1.328,7.171-3.428,10.287-5.611
		C395.396,175.716,391.067,178.054,388.43,180.544z M346.657,180.233c0.708-1.579,2.381-2.192,2.806-4.053
		c-1.43,0.025-2.118,0.792-3.741,0.624c-0.256-0.783-0.629-1.449-1.246-1.871C344.142,177.76,345.638,178.759,346.657,180.233z
		 M378.143,177.115c-0.202,19.632-1.228,31.895-0.936,54.553c-66.562,38.905-131.532,79.408-197.327,119.082
		c0.218,4.363,0.736,9.872-0.935,14.34c3.95,1.35,6.562,4.037,10.287,5.611c49.471-29.582,99.004-61.406,148.696-90.715
		c12.399-7.312,24.523-15.908,37.097-22.756c1.904-1.038,3.796-2.7,5.923-4.053c1.326-0.844,5.474-3.937,6.857-0.936
		c-2.528,0.381-4.605,1.214-6.234,2.494c6.133,4.862,13.533,8.746,20.574,12.781c7.204,4.128,14.12,8.627,21.198,11.846
		c0.478-4.041-0.013-7.424,0.312-12.157c-2.991-2.204-7.09-3.302-9.352-6.235c3.468,1.52,6.24,3.734,9.663,5.3
		c3.66-2.159,7.871-3.768,10.911-6.547c-11.467-7.237-24.249-13.159-35.227-20.886c-0.668-23.283,0.775-37.962-0.623-62.035
		c-3.954,1.449-6.966,3.841-10.599,5.611c-0.057,10.951,0.119,17.214-0.936,23.068c0-8.104,0-16.21,0-24.315
		c-3.276-1.503-5.859-3.7-9.352-4.988C378.143,176.492,378.143,176.804,378.143,177.115z M344.476,179.921
		c0.147-0.979-0.389-1.274-0.936-1.559C343.295,179.439,343.831,179.733,344.476,179.921z M4.063,205.171
		c6.095,4.296,12.731,8.051,19.639,11.534c-0.775-2.585-1.169-7.145,1.247-9.353c-1.432,5.601,0.375,14.867,6.858,12.47
		c0.028-1.679,0.362-4.239,0.312-6.858c-1.209-0.479-3.403-0.861-3.741-2.493c-0.367-1.774,4.783-10.627,6.235-10.911
		c2.532-0.496,2.895,1.982,5.299,1.87c1.366-1.751,3.97-2.264,5.299-4.052c-0.904-1.633-1.297-3.12-2.806-3.741
		c-3.45-1.421-7.489,2.15-9.352,0.624c1.32-0.55,2.252-1.488,3.741-1.871c-1.436-2.721-5.597-2.716-6.858-5.611
		c3.635,0.643,6.418,5.405,9.664,4.364c-5.32-2.688-12.164-7.973-17.769-10.911c-9.194-4.819-17.63,6.663-19.639,13.404
		c-0.637,2.138-0.23,4.167-0.935,6.234c0.624,0,1.247,0,1.871,0c4.63,3.055,10.234,6.65,14.963,9.353
		c1.579,0.901,4.317,1.333,4.364,3.429c-7.092-3.818-13.797-8.024-20.574-12.157c0.188,0.746,0.448,1.422,0.312,2.493
		c6.333,2.085,10.344,6.49,16.522,8.729c0.938,1.661,3.782,1.414,4.053,3.741C15.976,212.586,10.665,208.234,4.063,205.171z
		 M196.091,182.727c-0.855,1.847-2.245,3.159-2.183,5.923c4.185,0.907,7.559,2.625,11.534,3.741c0.38-1.179,0.934-2.184,1.247-3.429
		C203.534,186.506,199.91,184.519,196.091,182.727z M205.754,195.507c1.538-0.857,3.102-4.644,2.182-5.923
		C207.041,191.229,205.759,193.995,205.754,195.507z M226.017,198.313c-5.637-2.113-11.424-5.248-16.21-7.481
		c-0.926,1.568-1.839,3.148-2.182,5.3c10.033,3.994,20.419,7.637,30.862,11.222c1.25-1.035,3.433-1.139,4.053-2.806
		C237.19,202.231,231.696,200.443,226.017,198.313z M138.732,273.129c1.725,1.419,3.665,1.713,5.611,2.805
		c3.948,2.218,10.539,8.508,14.963,9.041c6.869,0.827,11.554-3.944,15.898-6.235c20.346-10.729,42.038-23.772,60.788-34.602
		c1.067-2.338,1.238-5.531,0-7.794c-17.24-11.162-35.592-22.629-54.553-32.731c-6.735-3.589-14.235-9.924-23.691-7.17
		c-0.486,0.761-0.297,2.197-1.559,2.182c-0.604,0.046-0.435-0.539-0.936-1.246c-20.265,8.934-38.873,19.525-56.112,31.484
		c11.669,6.204,25.725,10.021,35.85,17.769c1.298,2.858,3.29,5.023,3.741,8.729c2.727-0.232,3.332,1.656,3.741,3.741
		C138.53,261.587,136.166,267.527,138.732,273.129z M47.394,198.937c-8.19,0.91-16.467,14.434-13.404,24.003
		c6.917,4.513,13.73,9.13,21.509,12.781c0.088-2.602-2.02-1.241-3.741-2.183c-3.515-3.239-8.539-4.97-12.157-8.104
		c-0.954,0.226-0.917-0.538-1.871-0.312c-0.112-1.862-3.087-0.861-2.806-3.118c7.129,3.158,12.84,7.734,19.639,11.223
		c0.243-1.523-0.69-4.224,0.935-4.364c0.722,3.759,1.042,9.653,7.17,9.04c6.77-0.677,15.529-13.139,14.34-21.197
		c-0.254-1.72-1.429-3.8-3.117-4.676c-2.221-1.153-5.422,0.337-7.482-0.312c0.203-1.875,2.996-1.16,4.053-2.182
		C62.506,207.061,57.346,197.831,47.394,198.937z M211.989,219.511c1.058,0.709,2.087,1.445,3.429,1.87
		c0.396-2.307,2.933-2.471,4.676-3.429c0.417-2.74-0.552-5.092,0.936-5.611c0,1.454,0,2.909,0,4.364
		c2.774-0.447,4.468-1.974,6.546-3.117c-0.37-0.925,0.203-2.117,0-3.741c-0.758-0.904-2.547-0.778-2.806-2.182
		c0.811-0.481,0.156-2.013,0.624-3.43c-1.551-0.111-2.237-1.088-4.053-0.935c-0.362,3.386,0.244,4.422-0.624,7.17
		c-0.844-2.484,0.318-5.255-0.312-7.794c-2.442-1.091-5.085-1.98-7.793-2.806C212.372,208.479,212.077,212,211.989,219.511z
		 M34.613,201.43c-1.604,2.88-5.268,6.268-4.364,9.664c1.431-0.288,1.506,0.78,2.806,0.623c1.399-3.172,3.078-6.065,4.987-8.729
		C37.112,202.256,35.887,201.819,34.613,201.43z M196.091,210.471c5.023,2.562,9.462,5.708,14.651,8.104
		c0.357-1.78-0.075-2.159,0-4.676c-1.852,0.123-2.229,1.72-4.364,1.559c0.916-1.37,2.558-2.014,4.364-2.494
		c0.29-5.078,1.363-7.117-0.312-10.91C205.835,205.044,200.715,207.51,196.091,210.471z M226.329,207.666
		c0.57,0.677,1.504,0.989,2.182,1.559c-0.016,1.661,0.033,2.777,0.312,3.429c2.938-0.803,5.271-2.211,7.17-4.053
		c-2.65-1.817-6.51-2.427-9.664-3.74C227.199,206.021,225.731,206.901,226.329,207.666z M244.409,205.171
		c-8.758,6.205-19.069,10.857-28.68,16.21c2.254,2.422,5.796,3.556,8.417,5.611c10.256-6.162,21.565-11.271,31.485-17.769
		C252.141,207.624,248.092,206.581,244.409,205.171z M339.799,217.017c3.644-1.656,7.661-2.938,10.287-5.611
		C346.396,213.014,342.881,214.799,339.799,217.017z M358.191,215.77c-1.91-1.099-4.813-3.137-6.234-3.117
		c-2.947,0.04-7.288,4.191-9.664,5.611c2.824,2.684,7.604,3.41,9.664,6.858c-3.57-1.834-6.635-4.173-10.287-5.923
		c-1.147,3.832-0.168,8.557-0.624,13.093c5.728,3.104,10.787,6.877,17.146,9.352c3.318-2.396,7.42-4.011,10.599-6.546
		c-4.235-2.936-10.476-5.525-13.404-8.729c4.987,2.598,9.758,5.413,14.34,8.416c2.089-1.236,4.02-2.63,6.234-3.74
		c0-1.663,0-3.325,0-4.988C371.1,223.404,363.718,218.951,358.191,215.77z M250.021,214.211c1.225-0.022,1.72-0.773,2.493-1.247
		C251.347,213.043,250.51,213.454,250.021,214.211z M339.799,231.357c-0.466-5.363,1.216-10.393-0.623-13.404
		C339.299,221.794,337.715,228.849,339.799,231.357z M74.203,231.045c14.005,6.466,28.769,12.172,42.084,19.327
		c-0.435,1.336-2.269-0.145-2.806,0.623c6.914,9.253,1.924,21.953-1.559,29.615c-6.274,13.803-14.105,27.332-19.951,40.525
		c2.754,2.102,6.094,6.335,4.676,10.599c4.772-1.25,8.044,1.166,11.222,2.494c4.821-10.374,9.929-19.535,14.651-30.238
		c3.119-7.068,6.456-14.508,9.664-21.198c1.365-2.848,4.733-7.215,4.676-10.599c-0.016-0.939-0.805-1.531-0.935-2.183
		c-0.98-4.892,2.512-7.365,1.87-13.093c-0.94-8.387-5.989-11.205-12.157-14.339c-14.815-7.527-33.132-15.034-47.072-21.821
		c-0.208,0-0.416,0-0.624,0C77.767,225.256,75.5,227.666,74.203,231.045z M95.713,247.255c6.271,3.903,13.266,8.886,19.327,11.223
		c-0.332-3.825-2.774-5.539-3.429-9.041c-7.626-3.077-14.7-6.706-22.445-9.663C87.925,244.577,92.755,245.414,95.713,247.255z
		 M221.029,254.737c0,2.078,0,4.156,0,6.234c2.18-0.002,4.174-0.189,5.923-0.623c0.097-1.789,1.022-6.723-0.312-8.729
		C224.725,252.613,222.855,253.654,221.029,254.737z M215.729,258.166c1.225,1.062,2.776,1.797,4.364,2.494
		c-0.203-1.667,0.41-4.15-0.312-5.3C218.496,256.36,216.924,257.074,215.729,258.166z M139.355,259.724
		c0.933-0.002,1.31-0.56,1.559-1.246c-0.573-0.467-0.777-1.302-1.559-1.56C138.887,257.424,138.887,259.219,139.355,259.724z
		 M425.525,267.207c4.099-1.098,6.474-3.918,10.287-5.3c0.045-0.368,0.556-0.707,0-0.936
		C432.735,263.401,428.087,264.26,425.525,267.207z M437.06,263.154c-3.361,0.537-6.846,3.505-10.287,4.987
		c0.207,3.742-0.414,8.312,0.312,11.534c3.294-1.902,6.696-3.694,9.976-5.611C436.588,270.66,437.303,267.198,437.06,263.154z
		 M425.214,280.611c-0.24-4.512,1.134-7.665-0.312-12.47C425.197,272.203,423.756,276.458,425.214,280.611z M137.796,274.688
		c-8.842,20.979-19.023,40.621-28.991,60.476c3.408,1.684,6.166,4.018,9.975,5.3c2.558-2.43,6.323-3.653,9.352-5.611
		c8.42,4.568,16.177,9.801,24.627,14.34c-0.083-1.538,1.839-1.07,2.494-1.871c-0.53-12.778,0.854-34.28,0-49.877
		c0.668-0.787,1.936-0.974,2.494-1.87c-0.904-4.541,3.769-3.504,2.494-8.417C152.026,283.734,146.103,278.02,137.796,274.688z
		 M167.1,285.287c0.881,1.261-0.194,3.255,0.312,4.364c2.695,1.122,3.171,3.423,3.117,5.923c-1.236,0.737-2.247,1.701-3.429,2.494
		c0.605,1.993-0.555,2.631,0.623,4.052c2.296-1.444,4.723-2.759,7.17-4.052c-1.132-8.276,1.174-12.59-0.935-16.834
		C172.03,282.944,169.263,283.813,167.1,285.287z M163.982,291.521c-3.493,2.205-5.411,7.899,0,8.729c0-1.351,0-2.701,0-4.053
		c1.388-0.066,1.287-1.622,2.806-1.559c0.275-1.325-0.212-2.023,0.624-3.117c-0.71-1.056-2.876-0.657-3.429-1.87
		c0-1.039,0-2.078,0-3.117c-0.624,0-1.247,0-1.87,0C163.793,287.739,163.494,289.058,163.982,291.521z M68.592,294.015
		c1.154-0.093,2.048-0.446,1.871-1.87C69.134,292.018,67.978,293.173,68.592,294.015z M73.58,296.197
		c-0.303-1.048-0.887-1.814-1.559-2.493c-0.769,0.582-1.095,1.606-2.494,1.559c2.298,7.573,7.583,12.159,10.287,19.327
		c2.714,2.896,4.385,6.838,6.546,10.287c1.253,0.215,1.779-0.299,2.806-0.312c0.648-2.935-1.106-3.467-1.559-5.3
		c-1.443-0.371,0.546,1.314-0.623,1.559c-1.917-2.863-3.758-5.802-5.3-9.04c0.98-0.357,0.758,0.489,1.247,0.624
		c-0.134-1.426-1.056-2.062-1.559-3.118c0.017,0.537-0.24,0.8-0.624,0.936c-0.175-0.478-1.727-1.144-0.624-1.87
		c0.719-0.096,0.347,0.9,0.936,0.935c-0.621-3.016-2.572-4.701-4.053-6.857c0.276,1.395,2.287,2.689,1.559,4.052
		c-2.409-3.202-4.415-6.807-6.234-10.599C73.332,295.254,73.308,297.119,73.58,296.197z M164.917,300.25
		c1.108-0.484,0.188,1.059,0.935,0.936c-0.084-0.668,0.241-3.326-0.312-2.494C165.808,299.686,165.05,299.655,164.917,300.25z
		 M156.5,317.083c0,17.214-0.624,31.062,0,44.89c2.469,2.103,5.53,3.613,8.417,5.299c0.595-5.601,0.521-8.211,0.312-12.157
		c3.951-3.14,9.328-4.211,12.469-7.481c-0.498-19.749,1.31-32.986-0.624-47.384c-3.016,1.764-5.85,3.71-9.352,4.988
		c0.188,8.215-0.431,12.354-0.623,17.769c-0.064,1.801,1.352,4.375-0.624,6.234c-0.408-6.119,0.558-15.353,0.312-24.003
		c-3.242-1.851-6.664-3.52-9.664-5.611C156.008,304.099,156.5,311.398,156.5,317.083z M85.737,317.083
		c-0.55-1.84-1.562-3.218-2.494-4.676C83.724,314.317,84.738,315.692,85.737,317.083z M84.49,324.253
		c-0.964-3.598-4.233-4.178-7.481-5.923c-2.681-1.441-4.594-3.457-6.235-4.053c-10.195-3.702-18.078,9.398-18.392,19.327
		c7.807,4.249,15.734,10.032,23.38,13.404c0.886,0.055-0.376-2.039,0.936-1.559c0.023,5.749,1.809,11.206,6.858,10.911
		c0-2.494,0-4.988,0-7.481c-2.332-0.786-4.453-1.781-4.676-4.677c1.689-2.003,2.619-5.476,3.741-8.104
		c0.453-1.063,2.257-2.064,0.935-3.117c-1.779,2.312-3.93,4.73-5.299,7.481c-0.365,0.731,0.39,2.391-1.247,2.182
		c1.292-4.111,3.398-7.408,5.923-10.287c0.724-0.753,0.834,0.487,1.559,0.624c0.185-1.166,1.09-1.612,1.559-2.494
		C84.638,329.166,83.689,326.903,84.49,324.253z M85.114,326.124c1.154,4.463,8.888,1.389,7.793-3.117
		c-0.78-0.259-1.224-0.854-2.182-0.936C91.822,324.237,88.428,328.443,85.114,326.124z M86.984,330.176
		c0.565,1.409,1.682,2.266,2.182,3.74c3.099,0.466,5.879-0.873,6.546-3.74c-1.477-0.603-1.479-2.679-2.806-3.43
		C91.589,328.546,88.776,328.851,86.984,330.176z M79.814,345.451c1.081,1.102,2.581,1.783,4.052,2.494
		c1.595-5.056,4.168-9.132,7.17-12.781c-3.146,0.549-2.803-2.392-4.676-3.117C84.359,336.695,81.662,340.648,79.814,345.451z
		 M112.234,338.905c-2.755-1.591-8.568-5.563-11.534-5.923c-9.031-1.095-15.531,11.027-16.21,19.639
		c3.023,2.293,6.718,4.139,10.287,6.234c3.403,1.999,7.442,4.188,9.352,6.547c-6.574-3.302-12.916-8.484-19.327-10.911
		c0.336,2.654,3.422,3.166,5.299,4.364c6.081,3.884,12.477,8.039,18.392,10.6c0.355-1.923-2.559-2.21-2.182-3.117
		c1.601,0.165,2.575,0.958,3.429,1.87c-0.2,3.895,2.142,6.01,4.988,6.234c7.451,0.589,16.776-12.162,16.21-20.886
		c-0.221-3.414-2.591-6.497-6.234-6.547c-1.453-0.02-3.105,1.675-4.364,0.312c0.383-0.968,1.333-1.368,2.494-1.559
		C120.065,343.214,116.193,341.189,112.234,338.905z M52.694,337.346c8.512,3.749,15.474,9.048,23.38,13.404
		c0.25-1.081-0.464-1.198-0.312-2.183c-7.668-4.593-15.089-9.434-23.068-13.716C52.694,335.683,52.694,336.514,52.694,337.346z
		 M120.028,341.398c5.354,4.219,11.736,4.317,12.158,12.158c0.095,1.769-0.458,4.959-0.936,6.546
		c-0.257,0.855-1.719,2.495-1.559,3.117c0.289,1.121,6.7,4.132,8.729,5.3c21.074,12.13,41.85,24.374,62.347,35.85
		c0.487-2.41,0.244-7.398,0.312-11.846c-1.113-1.589-3.383-2.021-4.364-3.741c1.761,0.525,2.774,1.799,4.676,2.182
		c3.253-2.045,7.183-3.415,9.975-5.923c-10.87-6.69-22.287-12.835-33.043-19.639c-3.726,2.196-7.601,4.244-11.222,6.546
		c-3.302-2.14-6.783-4.149-10.287-6.234c-3.416-2.032-7.445-3.506-9.976-6.546c2.491,0.418,3.12,2.698,5.923,2.806
		c0-3.741,0-7.482,0-11.223c-7.559-4.392-14.728-9.172-22.445-13.404c-2.573,1.584-5.825,4.148-8.729,4.364
		c1.259-2.689,5.25-2.647,6.858-4.988C125.755,337.153,122.156,339.369,120.028,341.398z M58.305,342.022
		c-0.305-0.648-1.61-1.898-2.182-1.247C56.976,341.065,57.452,341.732,58.305,342.022z M67.969,347.633
		c-2.658-1.706-5.217-3.512-8.105-4.988C61.932,344.735,65.709,346.773,67.969,347.633z M70.774,349.192
		c-0.872-0.081-1.758-1.751-2.494-0.936C69.034,348.456,70.242,349.804,70.774,349.192z M76.074,352.309
		c-1.585-0.705-3.75-2.479-4.988-2.494C72.51,350.519,75.158,353.156,76.074,352.309z M153.695,363.219
		c4.723,2.136,8.324,5.393,13.093,7.482c-0.405-3.763,0.756-7.909-0.312-9.664c-0.354,2.556,0.746,6.564-0.624,8.105
		c-4.084-1.943-7.493-4.561-11.223-6.858c0.431-1.263-0.676-0.986-0.623-1.87c0.748,0.556,0.471-5.186,0.623-9.041
		c-0.398-0.017-0.432-0.399-0.935-0.312C153.695,355.115,153.695,359.167,153.695,363.219z M168.658,356.673
		c-0.346,4.995-0.949,7.578-0.312,12.47c3.956-1.345,6.606-3.994,10.599-5.3c0-4.261,0-8.521,0-12.781
		C175.272,352.688,172.094,354.81,168.658,356.673z M169.593,354.179c1.246-0.014,3.186-0.954,2.806-1.559
		C171.455,353.131,170.288,353.419,169.593,354.179z M104.129,369.766c1.732,1.044,3.5,2.842,5.299,2.494
		c-6.962-4.156-14.591-9.308-21.509-12.47C92.949,363.096,99.076,366.721,104.129,369.766z M202.325,391.899
		c2.178,0.093,4.083-1.75,5.923-2.806c1.458-0.837,5.106-2.089,4.364-3.117C209.257,388.024,205.525,389.695,202.325,391.899z
		 M204.196,392.834c0.207,4.053-0.415,8.935,0.312,12.469c3.357-1.422,6.253-3.307,9.352-4.987c0.079-4.262,0.583-8.739,0-12.157
		C210.638,388.492,207.337,391.387,204.196,392.834z M202.637,405.616c0.073-3.518,1.981-10.232-0.623-12.47
		C202.164,399.258,201.055,400.934,202.637,405.616z"/>
	<path fill-rule="evenodd" clip-rule="evenodd" fill="#A0A0A4" d="M420.85,119.133c-39.628,23.221-81.062,45.14-121.575,67.958
		c-0.943,0.531-2.021,2.061-3.43,1.247c36.231-20.274,72.932-40.699,109.418-61.1C410.306,124.418,415.089,120.544,420.85,119.133z"
		/>
	<path fill-rule="evenodd" clip-rule="evenodd" fill="#EFF0F0" d="M385.936,119.133c-1.823,0.616-3.187,3.188-4.987,2.806
		C381.911,120.304,383.942,119.738,385.936,119.133z"/>
	<path fill-rule="evenodd" clip-rule="evenodd" fill="#EFF0F0" d="M379.077,174.933c2.512-0.717,5.446,3.47,8.417,4.364
		C384.686,179.091,381.958,176.107,379.077,174.933z"/>
	<path fill-rule="evenodd" clip-rule="evenodd" fill="#C41230" d="M22.768,215.458c-0.271-2.327-3.115-2.08-4.053-3.741
		c-6.178-2.238-10.189-6.644-16.522-8.729c0.137-1.071-0.123-1.747-0.312-2.493c6.777,4.133,13.482,8.339,20.574,12.157
		c-0.047-2.096-2.786-2.527-4.364-3.429c-4.729-2.702-10.333-6.298-14.963-9.353c-0.624,0-1.247,0-1.871,0
		c0.705-2.067,0.298-4.097,0.935-6.234c2.009-6.741,10.445-18.224,19.639-13.404c5.605,2.938,12.449,8.223,17.769,10.911
		c-3.246,1.041-6.029-3.721-9.664-4.364c1.262,2.895,5.423,2.89,6.858,5.611c-1.488,0.382-2.421,1.32-3.741,1.871
		c1.862,1.527,5.902-2.045,9.352-0.624c1.508,0.622,1.901,2.108,2.806,3.741c-1.329,1.788-3.933,2.301-5.299,4.052
		c-2.405,0.112-2.768-2.366-5.299-1.87c-1.452,0.284-6.602,9.137-6.235,10.911c0.337,1.632,2.531,2.014,3.741,2.493
		c0.051,2.619-0.284,5.18-0.312,6.858c-6.483,2.397-8.29-6.869-6.858-12.47c-2.416,2.208-2.021,6.768-1.247,9.353
		c-6.908-3.483-13.544-7.238-19.639-11.534C10.665,208.234,15.976,212.586,22.768,215.458z M19.338,181.168
		c2.855,1.302,4.695,3.617,8.105,4.364C25.486,183.695,21.654,180.589,19.338,181.168z M18.091,184.597
		c-1.116-0.859-2.027-1.922-3.741-2.182C14.521,183.876,17.646,185.463,18.091,184.597z M24.638,188.961
		c-0.237-1.425-1.599-1.727-2.806-2.182C22.04,188.459,23.864,188.682,24.638,188.961z M30.561,192.702
		c-0.159-1.607-1.483-2.049-3.117-2.182C28.182,191.548,29.177,192.319,30.561,192.702z M9.675,193.949
		c-0.705-1.269-1.994-1.954-3.741-2.182C6.802,192.873,7.91,193.739,9.675,193.949z M13.104,196.443
		c1.503,0.415,3.312,3.335,4.676,1.87C16.32,197.855,14.214,195.231,13.104,196.443z M25.885,205.483
		c0.768-3.51,5.519-6.305,4.988-9.04C29.174,199.049,24.893,202.249,25.885,205.483z M14.039,203.301
		c-2.644-2.969-6.487-4.735-10.288-6.547C6.32,199.797,10.403,201.326,14.039,203.301z M22.144,201.743
		c-0.07-1.697-1.639-1.895-3.118-2.183C19.591,200.762,20.768,201.352,22.144,201.743z M21.832,207.666
		c-1.493-1.521-3.439-2.588-5.611-3.43C17.001,206.09,20.756,208.172,21.832,207.666z"/>
	<path fill-rule="evenodd" clip-rule="evenodd" d="M287.428,182.103c0.395,2.476-2.471,4.384-2.806,7.17
		C283.988,186.557,286.768,184.562,287.428,182.103z"/>
	<path fill-rule="evenodd" clip-rule="evenodd" fill="#C41230" d="M70.462,209.536c-1.057,1.021-3.85,0.307-4.053,2.182
		c2.06,0.649,5.261-0.841,7.482,0.312c1.688,0.876,2.863,2.956,3.117,4.676c1.189,8.059-7.57,20.521-14.34,21.197
		c-6.127,0.613-6.448-5.281-7.17-9.04c-1.625,0.141-0.692,2.841-0.935,4.364c-6.799-3.488-12.51-8.064-19.639-11.223
		c-0.282,2.257,2.693,1.256,2.806,3.118c0.954-0.227,0.917,0.537,1.871,0.312c3.619,3.135,8.643,4.865,12.157,8.104
		c1.721,0.941,3.829-0.419,3.741,2.183c-7.779-3.651-14.592-8.269-21.509-12.781c-3.062-9.569,5.214-23.093,13.404-24.003
		C57.346,197.831,62.506,207.061,70.462,209.536z M54.252,230.733c-6.341-4.569-13.105-8.716-20.575-12.157
		c-0.243,0.069-0.362,0.261-0.312,0.624C40.845,222.324,47.079,228.342,54.252,230.733z M60.175,205.483
		c-1.801-2.667-5.153-3.783-8.105-5.299C54.139,202.583,57.067,204.124,60.175,205.483z M48.953,203.301
		c-0.535-1.286-1.994-1.674-2.805-1.871C46.281,202.856,47.459,203.236,48.953,203.301z M55.188,207.353
		c-0.229-1.433-1.714-1.61-2.806-2.182C52.376,206.839,53.957,206.921,55.188,207.353z M66.098,208.913
		c-0.514-1.772-2.726-1.847-4.053-2.806C62.652,207.787,64.166,208.558,66.098,208.913z M61.11,211.094
		c0.041-1.184-0.815-1.471-1.87-1.559C59.191,210.728,60.513,210.548,61.11,211.094z M38.354,211.406
		c0.469,0.569,1.124,0.955,2.182,0.936C40.523,211.333,38.568,210.313,38.354,211.406z M55.499,226.681
		c1.491,0.089,0.685-1.278,0.936-1.871c1.814-4.283,4.583-8.055,7.793-10.91c-0.035-0.38-0.093-0.738-0.623-0.624
		C59.869,216.71,56.406,220.417,55.499,226.681z M47.083,216.082c-0.515-1.043-1.463-1.654-2.806-1.87
		C44.318,215.729,45.763,215.843,47.083,216.082z M74.203,216.394c-9.299-6.663-18.867,10.289-13.093,17.769
		C70.742,234.899,75.391,225.528,74.203,216.394z M44.277,220.446c-2.836-1.735-5.463-3.681-8.729-4.987
		C37.575,217.797,41.11,220.286,44.277,220.446z M54.564,220.758c-0.514-1.564-1.943-2.214-3.741-2.494
		C51.517,219.649,52.849,220.395,54.564,220.758z M53.629,226.681c-1.643-2.41-4.354-3.752-7.481-4.677
		C48.107,224.098,50.734,225.523,53.629,226.681z"/>
	<path fill-rule="evenodd" clip-rule="evenodd" d="M394.976,241.956c-0.138,1.837-2.462,1.486-3.429,2.494
		C391.287,243.453,393.714,242.467,394.976,241.956z"/>
	<path fill-rule="evenodd" clip-rule="evenodd" fill="#EFF0F0" d="M72.333,295.885c1.82,3.792,3.826,7.396,6.234,10.599
		c0.729-1.362-1.283-2.657-1.559-4.052c1.48,2.156,3.432,3.842,4.053,6.857c-0.589-0.034-0.217-1.03-0.936-0.935
		c-1.103,0.727,0.448,1.393,0.624,1.87c0.383-0.136,0.64-0.398,0.624-0.936c0.503,1.056,1.425,1.692,1.559,3.118
		c-0.489-0.135-0.267-0.981-1.247-0.624c1.542,3.238,3.383,6.177,5.3,9.04c1.169-0.244-0.82-1.93,0.623-1.559
		c0.453,1.833,2.207,2.365,1.559,5.3c-1.026,0.013-1.552,0.526-2.806,0.312c-2.162-3.449-3.832-7.391-6.546-10.287
		c-2.704-7.168-7.989-11.754-10.287-19.327c1.398,0.048,1.725-0.977,2.494-1.559c0.672,0.679,1.256,1.445,1.559,2.493
		C73.308,297.119,73.332,295.254,72.333,295.885z"/>
	<path fill-rule="evenodd" clip-rule="evenodd" fill="#EFF0F0" d="M83.244,312.408c0.931,1.458,1.944,2.836,2.494,4.676
		C84.738,315.692,83.724,314.317,83.244,312.408z"/>
	<path fill-rule="evenodd" clip-rule="evenodd" d="M103.818,335.475c1.7,1.21,3.884,1.936,5.611,3.118
		C108.056,339.417,104.942,336.943,103.818,335.475z"/>
	<path fill-rule="evenodd" clip-rule="evenodd" fill="#C41230" d="M56.123,340.775c0.572-0.651,1.877,0.599,2.182,1.247
		C57.452,341.732,56.976,341.065,56.123,340.775z"/>
	<path fill-rule="evenodd" clip-rule="evenodd" fill="#C41230" d="M59.863,342.645c2.888,1.477,5.447,3.282,8.105,4.988
		C65.709,346.773,61.932,344.735,59.863,342.645z"/>
	<path fill-rule="evenodd" clip-rule="evenodd" fill="#C41230" d="M68.28,348.256c0.736-0.815,1.622,0.854,2.494,0.936
		C70.242,349.804,69.034,348.456,68.28,348.256z"/>
	<path fill-rule="evenodd" clip-rule="evenodd" fill="#C41230" d="M71.086,349.815c1.238,0.016,3.402,1.789,4.988,2.494
		C75.158,353.156,72.51,350.519,71.086,349.815z"/>
	<path fill-rule="evenodd" clip-rule="evenodd" fill="#A0A0A4" d="M172.399,352.621c0.38,0.604-1.56,1.545-2.806,1.559
		C170.288,353.419,171.455,353.131,172.399,352.621z"/>
	<path fill-rule="evenodd" clip-rule="evenodd" fill="#C41230" d="M87.919,359.791c6.918,3.162,14.547,8.313,21.509,12.47
		c-1.8,0.348-3.567-1.45-5.299-2.494C99.076,366.721,92.949,363.096,87.919,359.791z"/>
	<path fill-rule="evenodd" clip-rule="evenodd" fill="#C41230" d="M275.271,207.666c-0.295-5.494-7.979-9.5-11.846-12.158
		c-11.637-8-24.796-16.29-38.031-21.821c0.146-4.322,2.573-6.363,3.429-9.976c17.54-30.467,33.341-62.674,51.124-92.896
		c2.219-5.315,5.118-10.333,7.794-15.275c5.393-9.959,11.168-19.551,16.521-29.614c2.656-4.994,5.385-9.919,7.481-15.275
		c3.624-3.844,5.391-9.729,12.47-9.664c4.658,0.043,10.727,3.155,15.586,5.299c13.557,5.981,28.719,15.919,36.473,25.874
		c0.202,5.227-2.828,9.058-4.987,13.093c-12.898,24.103-25.38,47.887-38.967,71.699c-1.621,2.841-2.58,5.621-4.676,7.481
		c-6.083,14.097-14.033,27.701-21.821,42.084c-5.311,9.808-11.217,20.412-16.833,30.862c-2.622,4.877-3.896,9.942-8.417,11.846
		C278.532,208.976,276.734,208.488,275.271,207.666z M332.629,7.845c3.106,0.759,6.903,4.084,9.041,3.741
		C339.033,10.326,335.153,7.157,332.629,7.845z M353.827,18.755c-1.765-1.688-5.628-4.523-7.481-4.053
		c4.484,2.582,8.628,5.504,13.093,8.105C358.379,20.646,356.006,19.797,353.827,18.755z M310.496,16.573
		c1.203,0.621,1.913-1.654,0.624-1.559C310.986,15.608,310.448,15.798,310.496,16.573z M306.756,24.055
		c1.001-0.825,2.972-3.451,1.87-4.364C307.974,21.117,306.943,22.165,306.756,24.055z M365.984,27.172
		c-1.587-0.699-2.361-2.211-4.052-2.806C362.47,25.912,364.511,27.6,365.984,27.172z M300.521,35.277
		c-1.553,1.917-4.29,6.331-4.052,7.793c3.326-4.882,5.948-10.47,8.729-15.898c-0.069-0.243-0.262-0.363-0.624-0.312
		C303.492,29.936,301.331,31.93,300.521,35.277z M337.306,50.24c-0.218-8.515,0.866-11.947-0.312-18.081
		C337.455,40.048,335.904,43.98,337.306,50.24z M335.123,53.357c-0.084-5.956,1.07-10.679-0.312-15.275
		C334.936,42.798,334.151,49.81,335.123,53.357z M338.553,46.811c0.61-0.085,0.168,3.122,0.623,1.247
		c-0.169-1.605,0.361-5.548-0.312-5.611C338.463,44.479,338.866,45.87,338.553,46.811z M348.527,63.645
		c3.477-4.941,5.902-10.932,9.041-16.21c-0.07-0.242-0.009-0.615-0.312-0.624C354.583,52.452,350.352,58.195,348.527,63.645z
		 M282.752,66.762c0.054,0.466-0.111,1.15,0.312,1.247c3.639-6.753,7.337-13.446,10.911-20.263c-0.07-0.242-0.009-0.615-0.312-0.624
		C289.823,53.467,286.606,60.433,282.752,66.762z M339.176,55.54c-0.299-0.948,0.667-3.161-0.623-3.117
		C338.719,53.503,338.089,55.379,339.176,55.54z M344.476,76.114c3.87-6.937,7.468-14.146,11.222-21.198
		c-0.069-0.242-0.009-0.615-0.312-0.624C351.935,61.545,346.822,68.797,344.476,76.114z M335.123,59.592
		c-0.192-0.846,0.396-2.474-0.312-2.806C334.587,57.931,334.445,58.375,335.123,59.592z M295.845,67.386
		c-0.195-0.948,0.399-2.685-0.312-3.118C294.786,65.054,294.641,66.977,295.845,67.386z M293.663,83.596
		c0.52-4.158,0.52-10.494,0-14.651C292.652,72.418,292.607,80.129,293.663,83.596z M294.91,78.608c0,2.426-0.511,6,0.623,6.235
		c0.511-3.232,0.525-11.318,0-15.587C294.639,70.308,294.91,74.532,294.91,78.608z M342.604,73.309
		c0.25,1.081-0.464,1.198-0.312,2.182c-4.66,7.393-8.849,15.259-12.781,23.38c-1.018,0.755-2.61,2.575-1.87,4.053
		c2.927-5.595,6.395-10.646,8.729-16.834c3.074-4.72,6.966-10.282,8.105-15.898C343.922,71.3,343.754,72.795,342.604,73.309z
		 M277.765,77.673c0.874-1.935,3.264-4.006,2.806-6.235C279.877,73.379,276.882,76.221,277.765,77.673z M297.092,81.414
		c0.428-1.608,0.627-4.302-0.312-4.988C296.886,78.716,296.205,79.772,297.092,81.414z M257.502,113.833
		c-1.287,1.418-3.12,3.941-2.806,5.923c4.241-6.877,7.491-14.746,12.157-21.198c2.293-6.541,7.248-12.079,9.04-18.081
		C269.443,91.276,263.321,102.404,257.502,113.833z M293.351,87.336c0.066-0.377,0.347-0.191,0.624,0c0-0.52,0-1.039,0-1.559
		c-0.312,0-0.624,0-0.936,0C293.21,86.231,292.675,87.389,293.351,87.336z M297.092,89.207c0.211-0.409,0.116-3.496-0.312-3.118
		C296.976,87.037,296.381,88.775,297.092,89.207z M293.351,94.195c1.06-1.199,0.771-3.486-0.312-4.364
		C293.24,91.188,292.633,93.354,293.351,94.195z M322.966,113.833c-0.062,2.955-3.299,4.388-2.494,7.17
		c5.088-9.875,10.216-19.71,15.587-29.303c-0.07-0.242-0.009-0.615-0.312-0.624C331.335,98.512,327.61,106.632,322.966,113.833z
		 M306.756,141.578c3.054-2.973,4.004-8.05,6.857-11.223c2.617-7.775,8.027-14.417,10.287-21.509
		C318.052,119.623,312.237,130.434,306.756,141.578z M305.82,148.748c-0.465,0.125-2.531,2.931-3.429,4.676
		c-1.134,2.204-2.347,4.968-2.494,6.858c5.388-10.407,11.661-21.59,16.21-31.796C312.312,134.872,308.711,141.455,305.82,148.748z
		 M246.591,134.408c0.577-0.991,2.339-2.431,1.559-3.741C247.666,131.75,245.866,133.152,246.591,134.408z M271.842,135.032
		c0.251-0.989,0.386-2.836-0.312-3.429C271.484,132.578,270.579,134.648,271.842,135.032z M237.862,149.06
		c-1.145,2.074-2.408,4.614-2.493,6.858c2.542-4.397,4.763-9.151,7.17-13.716c0.972-1.843,2.794-3.693,2.493-5.923
		C242.954,140.656,240.146,144.922,237.862,149.06z M269.971,140.019c0.419-0.456,0.638-2.469-0.312-2.494
		C269.85,138.271,269.269,139.787,269.971,140.019z M271.842,151.865c-0.262-7.58,0.846-9.156-0.312-13.405
		C271.328,142.099,270.556,148.162,271.842,151.865z M269.659,142.825c0,4.988,0,9.976,0,14.963
		c0.933-5.19,0.267-10.461,0.624-15.587c-0.069-0.243-0.262-0.362-0.624-0.312C269.659,142.201,269.659,142.513,269.659,142.825z
		 M273.4,148.748c-0.202-1.46,0.407-3.732-0.312-4.676C272.716,145.004,272.29,148.299,273.4,148.748z M285.869,180.856
		c5.889-9.289,11.801-21.239,17.457-31.796c-0.069-0.242-0.008-0.615-0.312-0.624C297.521,159.257,290.616,170.328,285.869,180.856z
		 M272.465,154.047c1.066,0.536-0.494,2.083,0.936,2.494c-0.195-0.947,0.398-2.685-0.312-3.117
		C273.022,153.773,272.742,153.909,272.465,154.047z M293.663,171.192c-1.507,2.735-4.941,6.58-4.364,9.352
		c1.09-4.314,4.792-7.675,5.299-11.534C294.277,169.729,293.525,170.016,293.663,171.192z M284.622,189.273
		c0.335-2.786,3.2-4.694,2.806-7.17C286.768,184.562,283.988,186.557,284.622,189.273z M280.882,197.378
		c-0.215-1.577,2.082-2.269,0.936-3.741C282.032,195.213,279.735,195.906,280.882,197.378z M275.271,202.366
		c1.464,0.113,2.573-0.128,2.806-1.247C277.006,201.4,275.558,201.301,275.271,202.366z"/>
	<path fill-rule="evenodd" clip-rule="evenodd" fill="#A0A0A4" d="M401.522,105.729c0,3.118,0,6.235,0,9.352
		c-4.054,2.078-7.858,4.404-11.846,6.546c-0.716-0.635-0.113-2.589-0.312-3.741c-3.618-2.118-6.322,2.159-9.352,3.429
		c-0.128,3.02-0.257,3.289,0,5.923c-12.82,7.237-26.758,15.01-38.967,21.821c-1.502-1.719-2.435-4.008-3.74-5.923
		c7.724-4.953,16.445-8.908,24.003-14.028c-4.079,1.39-8.084,3.944-12.157,6.235c-4.01,2.255-8.058,4.627-12.158,6.546
		c-2.423-1.941-3.24-5.488-5.299-7.793c4.124-3.822,9.412-5.99,14.34-8.729c14.635-8.136,30.192-17.046,45.201-25.25
		C395.242,101.41,397.858,104.093,401.522,105.729z M375.96,120.692c-0.751-0.128-0.678,0.569-1.559,0.312
		c-0.212,0.619-0.949,0.713-1.247,1.247c-2.924,1.855-6.949,2.61-9.04,5.299c10.909-5.301,22.65-12.471,33.979-18.392
		c0.35-0.449,0.337-0.761-0.312-0.935C390.841,112.712,382.808,116.109,375.96,120.692z"/>
	<path fill-rule="evenodd" clip-rule="evenodd" fill="#C41230" d="M142.473,259.101c-0.409-2.085-1.014-3.974-3.741-3.741
		c-0.451-3.705-2.443-5.87-3.741-8.729c-10.125-7.747-24.181-11.564-35.85-17.769c17.239-11.959,35.847-22.551,56.112-31.484
		c0.501,0.707,0.332,1.292,0.936,1.246c1.262,0.016,1.073-1.421,1.559-2.182c9.456-2.754,16.957,3.581,23.691,7.17
		c18.961,10.103,37.313,21.569,54.553,32.731c1.238,2.263,1.067,5.456,0,7.794c-18.75,10.829-40.442,23.873-60.788,34.602
		c-4.344,2.291-9.029,7.062-15.898,6.235c-4.425-0.533-11.016-6.823-14.963-9.041c-1.946-1.092-3.886-1.386-5.611-2.805
		C136.166,267.527,138.53,261.587,142.473,259.101z M177.698,202.366c-2.317-1.3-4.724-2.658-7.17-3.741
		c-0.034-0.763-1.03-0.065-0.935,0.312c4.797,2.58,9.385,5.37,14.34,7.793C182.521,204.646,179.906,203.604,177.698,202.366z
		 M143.408,204.236c4.005-1.605,8.012-3.21,11.222-5.611C150.411,200.017,146.394,201.611,143.408,204.236z M127.198,213.276
		c2.807-1.452,5.978-2.543,8.105-4.676C132.209,209.767,128.994,210.812,127.198,213.276z M190.479,210.159
		c0.024-1.167-1.223-1.063-2.182-1.246C188.524,209.829,189.269,210.226,190.479,210.159z M194.532,212.653
		c7.84,4.629,15.62,9.319,23.692,13.717c-7.391-5.599-15.682-10.297-24.315-14.652C193.938,212.208,193.867,212.798,194.532,212.653
		z M106.935,224.81c4.263-1.972,10.021-5.149,14.028-8.416C115.897,218.81,111.251,221.645,106.935,224.81z M144.343,221.381
		c0.284-0.439,0.886-3.194-0.312-3.117C144.111,219.787,143.508,220.375,144.343,221.381z M144.343,226.057
		c0.279-0.37,0.878-2.951-0.312-2.806C144.224,224.098,143.635,225.726,144.343,226.057z M144.343,238.215
		c0.148-4.128,1.301-7.413-0.312-10.6C143.759,231.068,143.578,236.103,144.343,238.215z M147.46,231.045
		c0.863-0.191,0.885-2.835,0.312-3.43c-0.066,0.377-0.346,0.192-0.624,0C147.346,228.666,146.747,230.511,147.46,231.045z
		 M183.621,230.421c0.066-0.474,0.825-2.021-0.312-2.493C183.688,229.18,182.484,230.208,183.621,230.421z M146.213,239.461
		c-0.207-3.638,0.414-8.104-0.312-11.222C145.04,230.564,144.525,237.639,146.213,239.461z M222.276,229.174
		c1.371,1.541,4.84,3.679,7.482,4.988C228.072,231.877,224.742,229.647,222.276,229.174z M182.062,234.474
		c-0.188-0.643,0.503-2.166-0.624-1.87C181.628,233.247,180.936,234.769,182.062,234.474z M183.31,241.021
		c-0.077,2.362-1.531,5.883,0.312,7.793c-0.201-4.892,0.407-12.251-0.312-15.587C183.118,235.909,183.393,238.47,183.31,241.021z
		 M147.772,240.708c0.723-1.459,0.107-4.257,0.312-6.234c-0.312,0-0.624,0-0.936,0C147.525,236.384,146.371,239.824,147.772,240.708
		z M182.062,239.461c0.023-1.166-0.131-2.154-0.624-2.805C181.634,238.063,180.63,239.053,182.062,239.461z M235.992,239.461
		c0.218-1.152-0.493-1.377-1.559-1.246C234.492,239.092,234.976,239.543,235.992,239.461z M185.18,242.58
		c0.716-0.636,0.113-2.589,0.312-3.741c-0.312,0-0.624,0-0.935,0C184.883,239.967,183.85,242.456,185.18,242.58z M227.887,241.021
		c1.036-0.212,2.209-0.285,2.494-1.247C229.224,239.864,228.239,240.126,227.887,241.021z M235.681,242.891
		c0.514-0.686,0.973-2.336,0-2.806C234.982,240.11,234.478,242.962,235.681,242.891z M215.729,246.32
		c3.029-0.526,7.093-2.658,9.976-4.364c0.479-0.074,0.046-0.514-0.312-0.623C222.514,243.336,218.423,244.129,215.729,246.32z
		 M181.751,253.801c-0.285-4.547,0.595-9.048-0.312-11.846C181.517,246.781,180.477,250.62,181.751,253.801z M145.902,245.073
		c0.676,0.053,0.141-1.105,0.312-1.559c-0.312,0-0.624,0-0.935,0C145.417,244.104,144.854,245.393,145.902,245.073z
		 M215.729,248.502c0.586,0.357,2.481-0.058,2.494-1.247C217.218,247.497,216.381,247.907,215.729,248.502z M185.18,250.684
		c0.598,0.678,0.197-2.279,0.312-3.117c-0.312,0-0.624,0-0.935,0C184.773,248.552,184.013,251.624,185.18,250.684z M179.569,265.959
		c-1.174,0.66-3.607,1.248-3.429,3.117c11.063-7.018,22.537-13.624,34.603-19.64c-0.049-0.366,0.053-0.885-0.312-0.935
		C200.388,253.951,189.33,260.469,179.569,265.959z M200.455,256.607c4.177-1.33,7.157-3.856,11.222-5.299
		c-0.049-0.367,0.054-0.885-0.312-0.936C208.088,252.81,203.333,253.77,200.455,256.607z M187.985,263.465
		c-1.873,1.1-4.438,1.758-4.987,3.429c3.553-2.266,7.762-3.875,10.91-6.546C191.736,260.747,189.905,262.338,187.985,263.465z
		 M149.019,269.388c-2.191-1.238-3.75-3.108-6.546-3.741C144.13,267.213,146.596,269.626,149.019,269.388z M145.278,270.324
		c3.151,1.108,5.028,3.492,8.417,4.364C151.585,272.857,147.703,269.796,145.278,270.324z M155.253,273.129
		c-1.25-0.517-1.856-1.677-3.429-1.871C151.999,272.64,154.632,274.19,155.253,273.129z M167.1,274.688
		c1.277-1.321,3.517-1.679,4.364-3.43C169.823,272.012,166.72,272.952,167.1,274.688z M159.618,284.351
		c0.523-1.082-0.459-2.969-0.624-4.364C158.226,281.176,158.66,283.188,159.618,284.351z"/>
	<path fill-rule="evenodd" clip-rule="evenodd" d="M161.177,303.055c-0.151,0.982,0.957,0.706,0.623,1.87
		c3.971-1.781,4.635,3.523,1.871,4.677c-1.67,0.007-2.501-0.824-2.494-2.494c-1.999,1.604-4.156-0.415-4.364-2.494
		C158.143,303.681,158.761,302.108,161.177,303.055z M159.306,306.484c0-0.415,0-0.831,0-1.246c-0.312,0-0.624,0-0.935,0
		C158.099,306.237,158.851,306.212,159.306,306.484z"/>
	<path fill-rule="evenodd" clip-rule="evenodd" fill="#C41230" d="M122.833,345.762c-1.161,0.19-2.111,0.591-2.494,1.559
		c1.259,1.363,2.911-0.331,4.364-0.312c3.644,0.05,6.013,3.133,6.234,6.547c0.566,8.724-8.759,21.475-16.21,20.886
		c-2.846-0.225-5.188-2.34-4.988-6.234c-0.854-0.912-1.828-1.705-3.429-1.87c-0.376,0.907,2.537,1.194,2.182,3.117
		c-5.915-2.561-12.311-6.716-18.392-10.6c-1.877-1.198-4.963-1.71-5.299-4.364c6.412,2.427,12.753,7.609,19.327,10.911
		c-1.91-2.359-5.949-4.548-9.352-6.547c-3.569-2.096-7.264-3.941-10.287-6.234c0.679-8.611,7.179-20.733,16.21-19.639
		c2.966,0.359,8.779,4.332,11.534,5.923C116.193,341.189,120.065,343.214,122.833,345.762z M109.429,338.593
		c-1.727-1.183-3.911-1.908-5.611-3.118C104.942,336.943,108.056,339.417,109.429,338.593z M100.389,339.839
		c-0.759-1.319-2.037-2.119-3.741-2.493C97.348,338.724,98.81,339.34,100.389,339.839z M117.222,343.269
		c-1.802-0.796-3.177-2.019-4.988-2.806C113.054,342.038,115.441,343.693,117.222,343.269z M106.312,343.581
		c0.021-1.178-1.75-2.181-2.494-1.559C104.532,342.659,105.115,343.426,106.312,343.581z M111.923,347.009
		c-0.038-0.793-0.454-1.209-1.247-1.247C110.462,346.808,111.199,346.902,111.923,347.009z M96.024,350.75
		c-1.731-0.767-3.589-3.057-5.299-2.806C91.994,349.006,95.066,351.441,96.024,350.75z M112.546,354.179
		c-1.69,2.577-3.755,6.562-3.118,9.353c1.468-5.599,4.383-9.749,7.793-13.405c0.479-0.074,0.046-0.513-0.312-0.623
		C115.516,351.05,114.154,351.728,112.546,354.179z M127.509,351.686c-4.003-6.258-12.109,4.012-14.028,7.169
		c-0.388,3.896-1.829,5.213-0.935,9.353c0.647,0.184,1.062,0.6,1.247,1.247C122.688,372.358,131.139,357.357,127.509,351.686z
		 M96.024,356.049c-2.511-1.853-5.321-3.406-8.105-4.987C89.691,353.449,93.423,355.532,96.024,356.049z M101.324,354.491
		c0.285-1.427-1.396-0.89-1.87-1.559C99.55,353.979,100.496,354.175,101.324,354.491z M105.064,361.661
		c-1.302-1.299-3.631-3.222-5.611-2.806C101.349,359.67,103.208,361.803,105.064,361.661z"/>
</g>
</svg>
